<?xml version="1.0" standalone="no"?>
<!DOCTYPE svg PUBLIC "-//W3C//DTD SVG 20010904//EN"
 "http://www.w3.org/TR/2001/REC-SVG-20010904/DTD/svg10.dtd">
<svg version="1.0" xmlns="http://www.w3.org/2000/svg"
 width="100.000000pt" height="100.000000pt" viewBox="0 0 100.000000 100.000000"
 preserveAspectRatio="xMidYMid meet">
<metadata>
Created by potrace 1.16, written by Peter Selinger 2001-2019
</metadata>
<g transform="translate(0.000000,100.000000) scale(0.100000,-0.100000)"
fill="#000000" stroke="none">
<path d="M170 822 c0 -16 -7 -21 -32 -24 -29 -3 -33 -7 -36 -35 -3 -30 -6 -33
-38 -33 l-34 0 0 -300 0 -300 470 0 470 0 0 60 c0 33 -4 60 -10 60 -5 0 -10
-20 -10 -45 l0 -45 -450 0 -450 0 0 270 0 270 25 0 25 0 2 -247 3 -248 395 0
395 0 3 248 2 247 25 0 c24 0 25 -3 25 -55 0 -30 5 -55 10 -55 6 0 10 30 10
70 l0 70 -34 0 c-32 0 -35 3 -38 33 -3 28 -7 32 -35 35 -26 3 -33 8 -33 24 0
19 -4 20 -77 15 -99 -7 -139 -19 -203 -62 l-52 -35 -32 25 c-58 45 -125 67
-213 73 -79 5 -83 4 -83 -16z m177 -28 c28 -8 71 -29 95 -47 l43 -33 3 -237
c1 -130 1 -237 -2 -237 -2 0 -21 6 -43 14 -22 8 -78 22 -124 31 -46 9 -92 19
-101 21 -17 5 -18 26 -18 260 l0 255 48 -6 c26 -4 70 -13 99 -21z m453 -229
l0 -255 -22 -5 c-13 -3 -58 -12 -100 -20 -43 -9 -96 -22 -119 -30 -23 -8 -43
-15 -45 -15 -2 0 -4 105 -4 234 l0 234 33 28 c54 45 143 76 240 83 16 1 17
-17 17 -254z m-630 -38 l0 -244 79 -12 c44 -6 99 -18 123 -25 41 -13 35 -14
-104 -15 l-148 -1 0 270 0 270 25 0 25 0 0 -243z m710 -27 l0 -270 -147 0
c-80 0 -144 3 -140 6 3 3 56 16 119 28 l113 22 3 242 2 242 25 0 25 0 0 -270z"/>
</g>
</svg>
