<?xml version="1.0" encoding="UTF-8"?>
<svg xmlns="http://www.w3.org/2000/svg" xmlns:xlink="http://www.w3.org/1999/xlink" width="50pt" height="50pt" viewBox="0 0 50 50" version="1.1">
<g id="surface1">
<path style=" stroke:none;fill-rule:nonzero;fill:rgb(0%,0%,0%);fill-opacity:1;" d="M 19.351562 2.050781 C 13.851562 3.351562 7.398438 8.199219 4.550781 13.199219 C 0.351562 20.5 0.550781 30.851562 5 37.601562 C 8.25 42.449219 13.5 46.351562 18.75 47.699219 C 27.601562 50.050781 36.300781 47.449219 42.449219 40.699219 C 46.101562 36.75 49.148438 30 47.300781 30 C 46.851562 30 46.5 30.300781 46.5 30.699219 C 46.5 31.101562 46.050781 32.449219 45.5 33.699219 L 44.550781 36 L 36.898438 36 L 37.199219 33.101562 C 37.398438 31.550781 37.648438 29.199219 37.800781 27.851562 L 38.101562 25.5 L 42.5 25.5 C 46.699219 25.5 46.949219 25.550781 47.101562 26.601562 C 47.398438 28.648438 48.25 27.800781 48.398438 25.300781 C 48.601562 22.550781 47.75 21.050781 47.199219 23.199219 C 46.898438 24.5 46.851562 24.5 42.5 24.5 L 38.148438 24.5 L 37.851562 22.101562 C 37.699219 20.800781 37.398438 18.449219 37.199219 16.851562 L 36.898438 13.949219 L 40.800781 14.101562 L 44.75 14.25 L 45.75 17.101562 C 46.300781 18.75 47.050781 20 47.398438 20 C 49.199219 20 45.800781 12.949219 42.148438 9 C 38.949219 5.550781 35.398438 3.351562 31.25 2.25 C 28.050781 1.449219 22.398438 1.351562 19.351562 2.050781 Z M 29.648438 3.25 C 31.449219 3.550781 31.699219 3.800781 33 6.648438 C 33.800781 8.351562 34.550781 10.5 34.75 11.398438 L 35.101562 13.050781 L 30.398438 12.898438 L 25.75 12.75 L 25.601562 8.300781 C 25.449219 3.199219 25.601562 2.5 26.851562 2.75 C 27.351562 2.851562 28.601562 3.101562 29.648438 3.25 Z M 24.398438 7.851562 L 24.25 12.75 L 19.550781 12.898438 L 14.851562 13.050781 L 15.199219 11.449219 C 15.75 8.648438 18.148438 3.898438 19.199219 3.5 C 19.800781 3.25 21.199219 3.050781 22.398438 3.050781 L 24.550781 3 Z M 14.648438 8.949219 L 13.25 13 L 9.898438 13 C 8 13 6.5 12.800781 6.5 12.601562 C 6.5 11.300781 15.199219 4 15.851562 4.699219 C 15.949219 4.800781 15.398438 6.699219 14.648438 8.949219 Z M 36.648438 6 C 39 7.449219 43.5 11.800781 43.5 12.601562 C 43.5 12.800781 41.949219 13 40.101562 13 L 36.699219 13 L 35.800781 10.101562 C 35.300781 8.550781 34.550781 6.648438 34.199219 5.851562 C 33.300781 4.101562 33.75 4.148438 36.648438 6 Z M 12.800781 16.851562 C 12.601562 18.449219 12.300781 20.800781 12.148438 22.101562 L 11.851562 24.5 L 2.851562 24.5 L 3.148438 21.601562 C 3.300781 20.050781 3.851562 17.699219 4.449219 16.351562 L 5.449219 14 L 13.101562 14 Z M 24.25 19.25 L 24.25 24.25 L 18.800781 24.398438 L 13.351562 24.550781 L 13.648438 20.898438 C 13.851562 18.898438 14.101562 16.5 14.300781 15.601562 L 14.648438 13.949219 L 19.449219 14.101562 L 24.25 14.25 Z M 35.699219 15.601562 C 35.898438 16.5 36.148438 18.898438 36.351562 20.898438 L 36.648438 24.550781 L 31.199219 24.398438 L 25.75 24.25 L 25.601562 19.800781 C 25.5 17.351562 25.550781 15.050781 25.699219 14.648438 C 25.898438 14.199219 27.199219 14 30.648438 14 L 35.398438 14 Z M 12.199219 27.851562 C 12.351562 29.199219 12.601562 31.550781 12.75 33.101562 L 13.050781 36 L 5.449219 36 L 4.449219 33.601562 C 3.851562 32.300781 3.300781 29.949219 3.148438 28.351562 L 2.851562 25.5 L 11.898438 25.5 Z M 24.25 30.75 L 24.25 35.75 L 19.449219 35.898438 L 14.648438 36.050781 L 14.300781 34.398438 C 14.101562 33.5 13.851562 31.101562 13.648438 29.101562 L 13.351562 25.449219 L 18.800781 25.601562 L 24.25 25.75 Z M 36.351562 29.101562 C 36.148438 31.101562 35.898438 33.5 35.699219 34.398438 L 35.351562 36.050781 L 30.550781 35.898438 L 25.75 35.75 L 25.601562 31.300781 C 25.5 28.851562 25.550781 26.550781 25.699219 26.148438 C 25.898438 25.648438 27.351562 25.5 31.300781 25.5 L 36.648438 25.5 Z M 14.5 40.601562 C 15.199219 42.601562 15.800781 44.550781 15.898438 44.949219 C 16.199219 46.050781 12 43.300781 9.148438 40.449219 C 7.699219 39.050781 6.5 37.699219 6.5 37.449219 C 6.5 37.199219 8.050781 37 9.898438 37 L 13.300781 37 Z M 24.398438 42.199219 L 24.550781 47.148438 L 21.699219 46.898438 C 19.5 46.699219 18.699219 46.398438 18 45.5 C 17.101562 44.300781 15 38.75 15 37.601562 C 15 37.101562 16.101562 37 19.648438 37.101562 L 24.25 37.25 Z M 34.75 38.601562 C 34.550781 39.5 33.800781 41.550781 33.101562 43.148438 C 31.699219 46.351562 30.75 47 27.449219 47 L 25.5 47 L 25.5 42.351562 C 25.5 39.75 25.648438 37.5 25.851562 37.351562 C 26 37.148438 28.148438 37 30.601562 37 L 35.101562 37 Z M 43.5 37.398438 C 43.5 38.148438 37.949219 43.351562 35.949219 44.449219 C 33.648438 45.75 33.699219 45.949219 35.5 40.601562 L 36.699219 37 L 40.101562 37 C 41.949219 37 43.5 37.199219 43.5 37.398438 Z M 43.5 37.398438 "/>
</g>
</svg>
