<?xml version="1.0" encoding="UTF-8"?>
<svg xmlns="http://www.w3.org/2000/svg" xmlns:xlink="http://www.w3.org/1999/xlink" width="50pt" height="50pt" viewBox="0 0 50 50" version="1.1">
<g id="surface1">
<path style=" stroke:none;fill-rule:nonzero;fill:rgb(0%,0%,0%);fill-opacity:1;" d="M 18 8 C 16.5 8.550781 14.398438 9.050781 13.398438 9.25 C 9.648438 9.851562 5.851562 13.449219 4.351562 17.800781 C 4.148438 18.351562 3.449219 19.5 2.75 20.449219 C 0.25 23.851562 1.398438 30.050781 4.949219 32.25 C 5.851562 32.800781 7.550781 34.050781 8.75 35.050781 C 9.949219 36.101562 11.25 37 11.601562 37.101562 C 12.101562 37.300781 12.148438 37.75 11.699219 39.300781 C 11.398438 40.351562 11.050781 41.601562 10.949219 42 C 10.800781 42.601562 11.398438 42.800781 13.898438 42.898438 C 16.398438 43 17 42.898438 17 42.300781 C 17 40.25 24 35.5 27 35.5 C 27.851562 35.5 29.699219 34.898438 31.148438 34.148438 C 33.300781 33 34.449219 32.75 37.5 32.75 C 41.648438 32.699219 46 31.199219 46 29.800781 C 46 28.800781 45.898438 28.800781 43.75 30.050781 C 42.648438 30.699219 40.75 31.199219 38.648438 31.398438 L 35.351562 31.648438 L 35.75 30.449219 C 37.699219 24.398438 35.050781 19.648438 29.398438 19.101562 C 27.5 18.898438 26.75 18.601562 26.148438 17.648438 C 25.601562 16.851562 25.199219 16.601562 24.851562 16.949219 C 24.5 17.300781 24.601562 17.851562 25.101562 18.601562 C 25.550781 19.300781 25.75 20.398438 25.648438 21.300781 C 25.5 22.199219 25.648438 23.050781 25.949219 23.199219 C 26.300781 23.398438 26.5 23.148438 26.5 22.550781 C 26.5 21.199219 28.550781 19.851562 30.101562 20.25 C 33.300781 21.050781 35.800781 25.148438 34.949219 28.148438 C 33.601562 32.800781 26.300781 35.699219 22.800781 32.949219 C 22.050781 32.351562 20.898438 30.75 20.199219 29.351562 C 17.601562 24.199219 14.800781 22.601562 11.300781 24.25 C 10.300781 24.75 9.5 25.449219 9.5 25.800781 C 9.5 26.648438 9.898438 26.648438 11.5 25.75 C 14 24.300781 15.898438 24.898438 17.648438 27.648438 C 18.851562 29.5 18.550781 31.050781 16.898438 31.949219 C 15.699219 32.648438 15.5 32.648438 14.550781 31.800781 C 14 31.300781 13.5 30.398438 13.398438 29.800781 C 13.300781 29.25 13.050781 28.800781 12.75 28.851562 C 11.800781 29.050781 11.949219 30.800781 13 32.148438 C 14.300781 33.75 16.800781 34 18.5 32.601562 C 19.601562 31.699219 19.648438 31.75 21.300781 33.398438 C 22.25 34.351562 22.949219 35.199219 22.898438 35.25 C 22.800781 35.300781 21.949219 35.800781 20.898438 36.398438 C 19.898438 37.050781 18.300781 38.398438 17.300781 39.5 C 16 40.949219 15.101562 41.5 14.050781 41.5 C 12.601562 41.5 12.601562 41.449219 13.050781 39.898438 C 13.800781 37.199219 13.601562 36.601562 11.601562 35.5 C 9.199219 34.148438 8 32.199219 8 29.699219 C 8 28.300781 7.851562 27.949219 7.449219 28.351562 C 7.148438 28.648438 6.851562 29.5 6.851562 30.199219 C 6.75 31.800781 6 31.851562 4.550781 30.300781 C 1.898438 27.5 2.199219 22.148438 5.101562 19.75 C 6.449219 18.601562 7.050781 18.449219 9 18.648438 C 10.25 18.75 11.648438 19.050781 12.148438 19.25 C 12.75 19.5 13 19.398438 13 18.851562 C 13 17.851562 9.949219 16.851562 7.699219 17.101562 C 5.75 17.351562 5.800781 17.398438 6.699219 15.601562 C 8.050781 13.050781 11.050781 10.949219 14.398438 10.351562 C 15.898438 10.050781 16 10.101562 15.5 11 C 14.800781 12.300781 15.851562 12.898438 16.75 11.699219 C 17.148438 11.148438 17.5 10.648438 17.5 10.5 C 17.5 10.351562 18.148438 9.851562 18.949219 9.351562 C 20.398438 8.5 24.148438 8.25 26.398438 8.800781 C 27.5 9.101562 27.5 9.148438 26.699219 10.050781 C 25.398438 11.5 26.199219 11.75 28.648438 10.550781 C 29.851562 10 31.699219 9.5 32.800781 9.5 C 35.300781 9.5 39.601562 11.601562 40.5 13.25 C 41.101562 14.398438 41 16.699219 40.25 18.601562 C 39.550781 20.300781 41 19.5 41.949219 17.648438 L 42.898438 15.800781 L 44.75 17.648438 C 46.449219 19.351562 47.5 19.949219 47.5 19.199219 C 47.5 18.398438 45.300781 15.949219 43.75 15 C 42.800781 14.398438 42 13.648438 42 13.300781 C 42 12.949219 41.398438 12.101562 40.648438 11.398438 C 38.199219 9.148438 36 8.300781 32 8.199219 C 29.949219 8.148438 27.449219 7.851562 26.5 7.550781 C 24.050781 6.800781 21.199219 6.949219 18 8 Z M 18 8 "/>
</g>
</svg>
