<?xml version="1.0" standalone="no"?>
<!DOCTYPE svg PUBLIC "-//W3C//DTD SVG 20010904//EN"
 "http://www.w3.org/TR/2001/REC-SVG-20010904/DTD/svg10.dtd">
<svg version="1.0" xmlns="http://www.w3.org/2000/svg"
 width="100.000000pt" height="100.000000pt" viewBox="0 0 100.000000 100.000000"
 preserveAspectRatio="xMidYMid meet">
<metadata>
Created by potrace 1.16, written by Peter Selinger 2001-2019
</metadata>
<g transform="translate(0.000000,100.000000) scale(0.100000,-0.100000)"
fill="#000000" stroke="none">
<path d="M578 953 c-8 -10 -94 -160 -191 -333 l-176 -315 -7 -137 c-5 -105 -4
-138 5 -138 7 0 60 32 118 72 76 51 114 85 134 117 16 25 29 51 29 58 0 22
-19 14 -34 -14 -32 -59 -27 -59 -120 -7 -47 27 -86 53 -86 57 0 11 240 438
255 455 10 11 27 6 96 -33 46 -26 86 -49 88 -51 1 -1 -7 -21 -20 -43 -24 -43
-18 -71 7 -36 8 11 42 69 76 129 47 83 59 112 51 125 -13 22 -163 109 -189
110 -11 1 -28 -7 -36 -16z m191 -98 c11 -11 7 -24 -24 -79 -20 -36 -39 -66
-41 -66 -5 0 -166 90 -174 97 -5 5 46 100 67 125 13 15 20 13 86 -24 40 -22
78 -46 86 -53z"/>
</g>
</svg>
