<?xml version="1.0" standalone="no"?>
<!DOCTYPE svg PUBLIC "-//W3C//DTD SVG 20010904//EN"
 "http://www.w3.org/TR/2001/REC-SVG-20010904/DTD/svg10.dtd">
<svg version="1.0" xmlns="http://www.w3.org/2000/svg"
 width="100.000000pt" height="100.000000pt" viewBox="0 0 100.000000 100.000000"
 preserveAspectRatio="xMidYMid meet">
<metadata>
Created by potrace 1.16, written by Peter Selinger 2001-2019
</metadata>
<g transform="translate(0.000000,100.000000) scale(0.100000,-0.100000)"
fill="#000000" stroke="none">
<path d="M377 904 c-8 -8 2 -55 14 -68 15 -17 10 -26 -16 -26 -36 0 -99 -61
-114 -111 -17 -56 0 -155 43 -242 l32 -67 -91 0 c-76 0 -99 -4 -135 -23 -59
-31 -82 -76 -77 -146 3 -48 8 -58 45 -93 41 -38 41 -38 127 -38 50 0 85 4 85
10 0 6 -29 10 -66 10 -89 0 -131 21 -156 76 -20 46 -17 80 11 123 31 48 53 51
446 51 l365 0 0 -30 0 -30 -290 -2 c-185 -2 -290 -7 -290 -13 0 -6 105 -11
290 -13 l290 -2 0 -35 0 -35 -296 0 c-232 0 -295 -3 -292 -12 4 -10 74 -14
296 -16 l292 -2 0 -30 0 -30 -130 0 c-80 0 -130 -4 -130 -10 0 -8 90 -12 290
-12 40 0 50 2 50 12 0 6 -11 10 -25 10 l-25 0 0 125 0 125 26 0 c16 0 24 5 22
13 -4 9 -46 13 -156 15 l-151 3 19 32 c26 44 55 131 64 189 18 122 -74 221
-184 197 -41 -9 -44 -7 -36 25 7 27 51 56 85 56 11 0 23 5 26 10 4 6 -10 10
-34 10 -31 0 -49 -7 -76 -31 -19 -17 -35 -26 -35 -20 0 27 -94 64 -113 45z
m86 -133 c36 -18 38 -18 74 0 46 24 69 24 112 1 53 -28 74 -74 67 -148 -6 -73
-38 -163 -73 -204 -29 -35 -66 -39 -115 -14 -29 15 -34 15 -59 0 -43 -25 -83
-21 -112 14 -35 41 -67 131 -73 204 -7 74 14 120 67 148 43 23 66 23 112 -1z"/>
</g>
</svg>
