<?xml version="1.0" encoding="UTF-8"?>
<svg xmlns="http://www.w3.org/2000/svg" xmlns:xlink="http://www.w3.org/1999/xlink" width="50pt" height="50pt" viewBox="0 0 50 50" version="1.1">
<g id="surface1">
<path style=" stroke:none;fill-rule:nonzero;fill:rgb(0%,0%,0%);fill-opacity:1;" d="M 38.5 11.75 C 33.398438 12.699219 25.898438 14.050781 21.75 14.75 C 17.648438 15.5 11.449219 16.550781 8.050781 17.148438 C 4.648438 17.75 1.75 18.5 1.648438 18.800781 C 1.550781 19.101562 3.25 20.5 5.449219 21.949219 C 7.601562 23.398438 9.75 24.949219 10.148438 25.398438 C 10.550781 25.851562 11.851562 29.050781 13 32.5 C 14.199219 35.949219 15.398438 39.050781 15.648438 39.351562 C 16 39.800781 17.050781 39.199219 19.75 37 L 23.351562 34.050781 L 26.050781 35.75 C 27.550781 36.699219 29 37.449219 29.25 37.449219 C 29.800781 37.449219 32.5 33.75 32.5 33 C 32.5 32.050781 31.75 32.5 30.25 34.25 L 28.75 36 L 23.5 32.5 C 20.601562 30.601562 18.199219 28.800781 18.101562 28.601562 C 18.050781 28.351562 23.449219 25.148438 30.101562 21.5 C 36.800781 17.800781 43.050781 14.351562 44 13.800781 L 45.75 12.75 L 43.800781 15.398438 C 42.5 17.199219 42.050781 18.25 42.351562 18.550781 C 42.699219 18.898438 43.800781 17.800781 45.699219 15.199219 C 48.300781 11.601562 49.050781 9.949219 48.148438 10.050781 C 47.898438 10.050781 43.601562 10.851562 38.5 11.75 Z M 26 18.5 C 18.199219 21.550781 11.550781 24 11.25 24 C 10.949219 24 9.148438 22.949219 7.25 21.648438 C 4.601562 19.851562 4 19.199219 4.75 19.101562 C 5.300781 19.050781 13.050781 17.648438 22 16.050781 C 30.949219 14.449219 38.699219 13.101562 39.25 13.101562 C 39.800781 13.050781 33.851562 15.5 26 18.5 Z M 33.5 18.050781 C 31.449219 19.199219 27.851562 21.148438 25.5 22.5 C 23.148438 23.800781 19.949219 25.550781 18.398438 26.449219 L 15.550781 28.050781 L 15.398438 31.398438 L 15.25 34.75 L 13.648438 30.101562 L 12.050781 25.449219 L 13.148438 24.949219 C 15.898438 23.800781 36.300781 16.050781 36.75 16 C 37.050781 16 35.550781 16.949219 33.5 18.050781 Z M 33.5 18.050781 "/>
</g>
</svg>
