<?xml version="1.0" encoding="UTF-8"?>
<svg xmlns="http://www.w3.org/2000/svg" xmlns:xlink="http://www.w3.org/1999/xlink" width="50pt" height="50pt" viewBox="0 0 50 50" version="1.1">
<g id="surface1">
<path style=" stroke:none;fill-rule:nonzero;fill:rgb(0%,0%,0%);fill-opacity:1;" d="M 8.5 8.898438 C 8.5 9.699219 8.148438 9.949219 6.898438 10.101562 C 5.449219 10.25 5.25 10.449219 5.101562 11.851562 C 4.949219 13.351562 4.800781 13.5 3.199219 13.5 L 1.5 13.5 L 1.5 43.5 L 48.5 43.5 L 48.5 40.5 C 48.5 38.851562 48.300781 37.5 48 37.5 C 47.75 37.5 47.5 38.5 47.5 39.75 L 47.5 42 L 2.5 42 L 2.5 15 L 5 15 L 5.101562 27.351562 L 5.25 39.75 L 44.75 39.75 L 44.898438 27.351562 L 45 15 L 46.25 15 C 47.449219 15 47.5 15.148438 47.5 17.75 C 47.5 19.25 47.75 20.5 48 20.5 C 48.300781 20.5 48.5 19 48.5 17 L 48.5 13.5 L 46.800781 13.5 C 45.199219 13.5 45.050781 13.351562 44.898438 11.851562 C 44.75 10.449219 44.550781 10.25 43.148438 10.101562 C 41.851562 9.949219 41.5 9.699219 41.5 8.898438 C 41.5 7.949219 41.300781 7.898438 37.648438 8.148438 C 32.699219 8.5 30.699219 9.101562 27.5 11.25 L 24.898438 13 L 23.300781 11.75 C 20.398438 9.5 17.050781 8.398438 12.648438 8.101562 C 8.699219 7.851562 8.5 7.898438 8.5 8.898438 Z M 17.351562 10.300781 C 18.75 10.699219 20.898438 11.75 22.101562 12.648438 L 24.25 14.300781 L 24.398438 26.148438 C 24.449219 32.648438 24.449219 38 24.300781 38 C 24.199219 38 23.25 37.699219 22.148438 37.300781 C 21.050781 36.898438 18.25 36.199219 15.949219 35.75 C 13.648438 35.300781 11.351562 34.800781 10.898438 34.699219 C 10.050781 34.449219 10 33.398438 10 21.699219 L 10 8.949219 L 12.398438 9.25 C 13.699219 9.449219 15.898438 9.898438 17.351562 10.300781 Z M 40 21.75 L 40 34.5 L 38.898438 34.75 C 38.25 34.898438 36 35.351562 33.898438 35.75 C 31.75 36.199219 29.101562 36.851562 27.949219 37.25 C 26.800781 37.648438 25.800781 38 25.699219 38 C 25.601562 38 25.5 32.75 25.5 26.300781 L 25.5 14.601562 L 27.148438 13.199219 C 29.851562 10.949219 34.300781 9.398438 39.148438 9.050781 C 39.949219 9 40 9.898438 40 21.75 Z M 8.5 23.648438 L 8.5 35.851562 L 12.449219 36.449219 C 14.648438 36.75 17.398438 37.351562 18.601562 37.699219 C 20.648438 38.351562 20.351562 38.398438 13.398438 38.449219 L 6 38.5 L 6 11.5 L 8.5 11.5 Z M 44 25 L 44 38.5 L 36.648438 38.5 C 32.648438 38.5 29.449219 38.351562 29.648438 38.199219 C 29.800781 38.050781 32.449219 37.398438 35.601562 36.800781 L 41.25 35.699219 L 41.398438 23.601562 L 41.5 11.5 L 44 11.5 Z M 44 25 "/>
</g>
</svg>
