<?xml version="1.0" encoding="UTF-8"?>
<svg xmlns="http://www.w3.org/2000/svg" xmlns:xlink="http://www.w3.org/1999/xlink" width="50pt" height="50pt" viewBox="0 0 50 50" version="1.1">
<g id="surface1">
<path style=" stroke:none;fill-rule:nonzero;fill:rgb(0%,0%,0%);fill-opacity:1;" d="M 18.851562 4.800781 C 18.449219 5.199219 18.949219 7.550781 19.550781 8.199219 C 20.300781 9.050781 20.050781 9.5 18.75 9.5 C 16.949219 9.5 13.800781 12.550781 13.050781 15.050781 C 12.199219 17.851562 13.050781 22.800781 15.199219 27.148438 L 16.800781 30.5 L 12.25 30.5 C 8.449219 30.5 7.300781 30.699219 5.5 31.648438 C 2.550781 33.199219 1.398438 35.449219 1.648438 38.949219 C 1.800781 41.351562 2.050781 41.851562 3.898438 43.601562 C 5.949219 45.5 5.949219 45.5 10.25 45.5 C 12.75 45.5 14.5 45.300781 14.5 45 C 14.5 44.699219 13.050781 44.5 11.199219 44.5 C 6.75 44.5 4.648438 43.449219 3.398438 40.699219 C 2.398438 38.398438 2.550781 36.699219 3.949219 34.550781 C 5.5 32.148438 6.601562 32 26.25 32 L 44.5 32 L 44.5 35 L 30 35.101562 C 20.75 35.199219 15.5 35.449219 15.5 35.75 C 15.5 36.050781 20.75 36.300781 30 36.398438 L 44.5 36.5 L 44.5 40 L 29.699219 40 C 18.101562 40 14.949219 40.148438 15.101562 40.601562 C 15.300781 41.101562 18.800781 41.300781 29.898438 41.398438 L 44.5 41.5 L 44.5 44.5 L 38 44.5 C 34 44.5 31.5 44.699219 31.5 45 C 31.5 45.398438 36 45.601562 46 45.601562 C 48 45.601562 48.5 45.5 48.5 45 C 48.5 44.699219 47.949219 44.5 47.25 44.5 L 46 44.5 L 46 32 L 47.300781 32 C 48.101562 32 48.5 31.75 48.398438 31.351562 C 48.199219 30.898438 46.101562 30.699219 40.601562 30.601562 L 33.050781 30.449219 L 34 28.851562 C 35.300781 26.648438 36.75 22.300781 37.199219 19.398438 C 38.101562 13.300781 33.5 8.351562 28 9.550781 C 25.949219 10 25.800781 9.898438 26.199219 8.300781 C 26.550781 6.949219 28.75 5.5 30.449219 5.5 C 31 5.5 31.601562 5.25 31.75 5 C 31.949219 4.699219 31.25 4.5 30.050781 4.5 C 28.5 4.5 27.601562 4.851562 26.25 6.050781 C 25.300781 6.898438 24.5 7.351562 24.5 7.050781 C 24.5 5.699219 19.800781 3.851562 18.851562 4.800781 Z M 23.148438 11.449219 C 24.949219 12.351562 25.050781 12.351562 26.851562 11.449219 C 29.148438 10.25 30.300781 10.25 32.449219 11.398438 C 35.101562 12.800781 36.148438 15.101562 35.800781 18.800781 C 35.5 22.449219 33.898438 26.949219 32.148438 29 C 30.699219 30.75 28.851562 30.949219 26.398438 29.699219 C 24.949219 28.949219 24.699219 28.949219 23.449219 29.699219 C 21.300781 30.949219 19.300781 30.75 17.851562 29 C 16.101562 26.949219 14.5 22.449219 14.199219 18.800781 C 13.851562 15.101562 14.898438 12.800781 17.550781 11.398438 C 19.699219 10.25 20.851562 10.25 23.148438 11.449219 Z M 23.148438 11.449219 "/>
</g>
</svg>
