<?xml version="1.0" standalone="no"?>
<!DOCTYPE svg PUBLIC "-//W3C//DTD SVG 20010904//EN"
 "http://www.w3.org/TR/2001/REC-SVG-20010904/DTD/svg10.dtd">
<svg version="1.0" xmlns="http://www.w3.org/2000/svg"
 width="100.000000pt" height="100.000000pt" viewBox="0 0 100.000000 100.000000"
 preserveAspectRatio="xMidYMid meet">
<metadata>
Created by potrace 1.16, written by Peter Selinger 2001-2019
</metadata>
<g transform="translate(0.000000,100.000000) scale(0.100000,-0.100000)"
fill="#000000" stroke="none">
<path d="M387 959 c-110 -26 -239 -123 -296 -223 -84 -146 -80 -353 9 -488 65
-97 170 -175 275 -202 177 -47 351 5 474 140 73 79 134 214 97 214 -9 0 -16
-6 -16 -14 0 -8 -9 -35 -20 -60 l-19 -46 -77 0 -76 0 6 58 c4 31 9 78 12 105
l6 47 88 0 c84 0 89 -1 92 -22 6 -41 23 -24 26 26 4 55 -13 85 -24 42 -6 -26
-7 -26 -94 -26 l-87 0 -6 48 c-3 26 -9 73 -13 105 l-6 58 78 -3 79 -3 20 -57
c11 -33 26 -58 33 -58 36 0 -32 141 -105 220 -64 69 -135 113 -218 135 -64 16
-177 18 -238 4z m206 -24 c36 -6 41 -11 67 -68 16 -34 31 -77 35 -95 l7 -33
-94 3 -93 3 -3 89 c-3 102 0 116 25 111 10 -2 35 -7 56 -10z m-105 -92 l-3
-98 -94 -3 -94 -3 7 32 c11 56 59 151 80 159 12 5 40 9 64 9 l43 1 -3 -97z
m-195 -22 l-28 -81 -67 0 c-38 0 -68 4 -68 8 0 26 174 172 187 158 2 -2 -9
-40 -24 -85z m440 59 c47 -29 137 -116 137 -132 0 -4 -31 -8 -68 -8 l-68 0
-18 58 c-10 31 -25 69 -32 85 -18 35 -9 34 49 -3z m-477 -217 c-4 -32 -10 -79
-13 -105 l-6 -48 -90 0 -90 0 6 58 c3 31 14 78 26 105 l20 47 77 0 76 0 -6
-57z m229 -48 l0 -100 -109 -3 -109 -3 6 73 c4 40 9 88 13 106 l7 33 96 -3 96
-3 0 -100z m229 73 c4 -18 9 -66 13 -106 l6 -73 -109 3 -109 3 -3 89 c-2 49
-1 95 2 103 4 9 30 13 99 13 l95 0 6 -32z m-470 -245 c3 -27 8 -74 11 -105 l6
-58 -76 0 -76 0 -20 48 c-12 26 -23 73 -26 105 l-6 57 91 0 90 0 6 -47z m241
-58 l0 -100 -96 -3 -96 -3 -7 33 c-4 18 -9 66 -13 106 l-6 73 109 -3 109 -3 0
-100z m242 33 c-4 -40 -9 -88 -13 -106 l-7 -33 -96 3 -96 3 -3 89 c-2 49 -1
95 2 103 4 10 33 13 112 13 l107 0 -6 -72z m-437 -230 c14 -40 26 -79 28 -87
6 -22 -78 33 -135 90 -29 28 -53 55 -53 60 0 5 31 9 68 9 l68 0 24 -72z m198
-32 l3 -99 -57 5 c-44 4 -60 10 -74 28 -18 24 -60 135 -60 158 0 10 22 12 93
10 l92 -3 3 -99z m207 72 c-4 -18 -19 -59 -33 -91 -28 -64 -47 -77 -113 -77
l-39 0 0 93 c0 52 3 97 7 100 3 4 46 7 95 7 l90 0 -7 -32z m175 24 c0 -15
-111 -119 -151 -141 -46 -26 -45 -30 -9 77 l24 72 68 0 c37 0 68 -4 68 -8z"/>
</g>
</svg>
