<?xml version="1.0" encoding="UTF-8"?>
<svg xmlns="http://www.w3.org/2000/svg" xmlns:xlink="http://www.w3.org/1999/xlink" width="50pt" height="50pt" viewBox="0 0 50 50" version="1.1">
<g id="surface1">
<path style=" stroke:none;fill-rule:nonzero;fill:rgb(0%,0%,0%);fill-opacity:1;" d="M 28.945312 2.351562 C 28.542969 2.855469 24.234375 10.367188 19.378906 19.027344 L 10.566406 34.800781 L 10.214844 41.664062 C 9.964844 46.921875 10.015625 48.574219 10.464844 48.574219 C 10.816406 48.574219 13.46875 46.96875 16.375 44.96875 C 20.179688 42.414062 22.082031 40.710938 23.085938 39.109375 C 23.886719 37.855469 24.539062 36.554688 24.539062 36.203125 C 24.539062 35.101562 23.585938 35.503906 22.835938 36.90625 C 21.230469 39.859375 21.484375 39.859375 16.824219 37.257812 C 14.472656 35.902344 12.519531 34.601562 12.519531 34.402344 C 12.519531 33.851562 24.539062 12.46875 25.289062 11.617188 C 25.789062 11.066406 26.640625 11.316406 30.09375 13.269531 C 32.398438 14.570312 34.402344 15.722656 34.5 15.824219 C 34.550781 15.875 34.152344 16.875 33.5 17.976562 C 32.296875 20.128906 32.597656 21.53125 33.851562 19.78125 C 34.25 19.226562 35.953125 16.324219 37.65625 13.320312 C 40.007812 9.164062 40.609375 7.710938 40.210938 7.0625 C 39.558594 5.960938 32.046875 1.601562 30.746094 1.550781 C 30.195312 1.5 29.34375 1.902344 28.945312 2.351562 Z M 38.507812 7.261719 C 39.058594 7.8125 38.859375 8.460938 37.304688 11.21875 C 36.304688 13.019531 35.351562 14.523438 35.253906 14.523438 C 35.003906 14.523438 26.941406 10.015625 26.539062 9.664062 C 26.289062 9.414062 28.84375 4.65625 29.894531 3.40625 C 30.546875 2.65625 30.898438 2.753906 34.203125 4.605469 C 36.203125 5.707031 38.109375 6.910156 38.507812 7.261719 Z M 38.507812 7.261719 "/>
</g>
</svg>
