<?xml version="1.0" standalone="no"?>
<!DOCTYPE svg PUBLIC "-//W3C//DTD SVG 20010904//EN"
 "http://www.w3.org/TR/2001/REC-SVG-20010904/DTD/svg10.dtd">
<svg version="1.0" xmlns="http://www.w3.org/2000/svg"
 width="100.000000pt" height="100.000000pt" viewBox="0 0 100.000000 100.000000"
 preserveAspectRatio="xMidYMid meet">
<metadata>
Created by potrace 1.16, written by Peter Selinger 2001-2019
</metadata>
<g transform="translate(0.000000,100.000000) scale(0.100000,-0.100000)"
fill="#000000" stroke="none">
<path d="M360 840 c-30 -11 -72 -21 -92 -25 -75 -12 -151 -84 -181 -171 -4
-11 -18 -34 -32 -53 -50 -68 -27 -192 44 -236 18 -11 52 -36 76 -56 24 -21 50
-39 57 -41 10 -4 11 -13 2 -44 -6 -21 -13 -46 -15 -54 -3 -12 9 -16 59 -18 50
-2 62 0 62 12 0 41 140 136 200 136 17 0 54 12 83 27 43 23 66 28 127 28 83 1
170 31 170 59 0 20 -2 20 -45 -5 -22 -13 -60 -23 -102 -27 l-66 -5 8 24 c39
121 -14 216 -127 227 -38 4 -53 10 -65 29 -11 16 -19 21 -26 14 -7 -7 -5 -18
5 -33 9 -14 13 -36 11 -54 -3 -18 0 -35 6 -38 7 -4 11 1 11 13 0 27 41 54 72
46 64 -16 114 -98 97 -158 -27 -93 -173 -151 -243 -96 -15 12 -38 44 -52 72
-52 103 -108 135 -178 102 -20 -10 -36 -24 -36 -31 0 -17 8 -17 40 1 50 29 88
17 123 -38 24 -37 18 -68 -15 -86 -24 -14 -28 -14 -47 3 -11 10 -21 28 -23 40
-2 11 -7 20 -13 19 -19 -4 -16 -39 5 -66 26 -32 76 -37 110 -9 22 18 23 17 56
-16 19 -19 33 -36 32 -37 -2 -1 -19 -11 -40 -23 -20 -13 -52 -40 -72 -62 -26
-29 -44 -40 -65 -40 -29 0 -29 1 -20 32 15 54 11 66 -29 88 -48 27 -72 66 -72
116 0 28 -3 35 -11 27 -6 -6 -12 -23 -12 -37 -2 -32 -17 -33 -46 -2 -53 56
-47 163 11 211 27 23 39 26 78 22 25 -2 53 -8 63 -12 12 -5 17 -3 17 8 0 20
-61 40 -106 35 -39 -5 -38 -6 -20 30 27 51 87 93 154 105 30 6 32 5 22 -13
-14 -26 7 -38 25 -14 8 11 15 21 15 24 0 3 13 13 29 23 29 17 104 22 149 11
22 -6 22 -7 6 -25 -26 -29 -10 -34 39 -10 24 11 61 21 83 21 50 0 136 -42 154
-75 12 -23 10 -69 -5 -107 -14 -34 15 -18 34 19 l19 37 37 -37 c34 -34 55 -46
55 -31 0 16 -44 65 -75 84 -19 12 -35 27 -35 34 0 7 -12 24 -27 38 -49 45 -93
62 -173 64 -41 1 -91 7 -110 13 -49 15 -106 12 -170 -9z"/>
</g>
</svg>
