<?xml version="1.0" standalone="no"?>
<!DOCTYPE svg PUBLIC "-//W3C//DTD SVG 20010904//EN"
 "http://www.w3.org/TR/2001/REC-SVG-20010904/DTD/svg10.dtd">
<svg version="1.0" xmlns="http://www.w3.org/2000/svg"
 width="100.000000pt" height="100.000000pt" viewBox="0 0 100.000000 100.000000"
 preserveAspectRatio="xMidYMid meet">
<metadata>
Created by potrace 1.16, written by Peter Selinger 2001-2019
</metadata>
<g transform="translate(0.000000,100.000000) scale(0.100000,-0.100000)"
fill="#000000" stroke="none">
<path d="M770 765 c-102 -19 -252 -46 -335 -60 -82 -15 -206 -36 -274 -48 -68
-12 -126 -27 -128 -33 -2 -6 32 -34 76 -63 43 -29 86 -60 94 -69 8 -9 34 -73
57 -142 24 -69 48 -131 53 -137 7 -9 28 3 82 47 l72 59 54 -34 c30 -19 59 -34
64 -34 11 0 65 74 65 89 0 19 -15 10 -45 -25 l-30 -35 -105 70 c-58 38 -106
74 -108 78 -1 5 107 69 240 142 134 74 259 143 278 154 l35 21 -39 -53 c-26
-36 -35 -57 -29 -63 7 -7 29 15 67 67 52 72 67 105 49 103 -5 0 -91 -16 -193
-34z m-250 -135 c-156 -61 -289 -110 -295 -110 -6 0 -42 21 -80 47 -53 36 -65
49 -50 51 11 1 166 29 345 61 179 32 334 59 345 59 11 1 -108 -48 -265 -108z
m150 9 c-41 -23 -113 -62 -160 -89 -47 -26 -111 -61 -142 -79 l-57 -32 -3 -67
-3 -67 -32 93 -32 93 22 10 c55 23 463 178 472 179 6 0 -24 -19 -65 -41z"/>
</g>
</svg>
