<?xml version="1.0" encoding="UTF-8"?>
<svg xmlns="http://www.w3.org/2000/svg" xmlns:xlink="http://www.w3.org/1999/xlink" width="30pt" height="32pt" viewBox="0 0 30 32" version="1.1">
<g id="surface1">
<path style=" stroke:none;fill-rule:nonzero;fill:rgb(0%,0%,0%);fill-opacity:1;" d="M 2.855469 0.933594 C 2.425781 1.0625 2.035156 1.398438 1.828125 1.820312 L 1.703125 2.074219 L 1.691406 14.59375 L 1.679688 27.121094 L 1.066406 27.136719 C 0.5 27.152344 0.4375 27.167969 0.226562 27.28125 L 0 27.414062 L 0 30.742188 L 0.175781 30.859375 L 0.355469 30.976562 L 5.21875 30.988281 L 10.085938 31 L 10.199219 30.886719 C 10.355469 30.738281 10.363281 30.457031 10.222656 30.308594 C 10.167969 30.253906 10.117188 30.203125 10.113281 30.195312 C 10.109375 30.1875 7.988281 30.175781 5.402344 30.160156 L 0.695312 30.136719 L 0.679688 29.074219 L 0.671875 28.015625 L 14.867188 28.023438 L 29.066406 28.039062 L 29.066406 30.136719 L 25.492188 30.160156 C 23.519531 30.175781 21.878906 30.203125 21.835938 30.21875 C 21.746094 30.261719 21.648438 30.449219 21.648438 30.585938 C 21.648438 30.738281 21.789062 30.945312 21.902344 30.976562 C 21.960938 30.988281 23.675781 30.992188 25.710938 30.988281 L 29.40625 30.976562 L 29.585938 30.859375 L 29.761719 30.742188 L 29.761719 27.414062 L 29.535156 27.28125 C 29.324219 27.167969 29.261719 27.152344 28.695312 27.136719 L 28.082031 27.121094 L 28.070312 14.59375 L 28.058594 2.074219 L 27.933594 1.820312 C 27.769531 1.488281 27.492188 1.207031 27.164062 1.039062 C 26.925781 0.917969 26.863281 0.90625 26.402344 0.90625 C 25.945312 0.914062 25.875 0.925781 25.652344 1.039062 C 25.351562 1.199219 25.109375 1.445312 24.929688 1.773438 L 24.792969 2.027344 L 24.777344 3.808594 L 24.765625 5.59375 L 22.820312 5.59375 L 22.738281 5.34375 C 22.691406 5.203125 22.625 5.066406 22.585938 5.035156 C 22.546875 5.003906 22.515625 4.949219 22.515625 4.921875 C 22.515625 4.8125 21.960938 4.367188 21.652344 4.226562 C 21.367188 4.097656 21.292969 4.085938 20.832031 4.082031 C 20.359375 4.082031 20.308594 4.09375 19.992188 4.242188 C 19.566406 4.441406 19.195312 4.796875 19.007812 5.183594 C 18.925781 5.347656 18.867188 5.503906 18.867188 5.53125 C 18.867188 5.578125 18.722656 5.59375 18.3125 5.59375 C 17.824219 5.59375 17.757812 5.585938 17.730469 5.507812 C 17.570312 4.96875 17.035156 4.398438 16.507812 4.195312 C 16.074219 4.03125 15.410156 4.03125 15.023438 4.195312 C 14.496094 4.417969 14.054688 4.851562 13.871094 5.332031 L 13.773438 5.59375 L 4.996094 5.59375 L 4.984375 3.808594 L 4.96875 2.027344 L 4.828125 1.769531 C 4.660156 1.457031 4.402344 1.203125 4.09375 1.039062 C 3.910156 0.941406 3.789062 0.917969 3.433594 0.902344 C 3.195312 0.894531 2.9375 0.90625 2.855469 0.933594 Z M 3.714844 1.832031 C 3.820312 1.886719 3.949219 2.007812 4.003906 2.097656 L 4.105469 2.261719 L 4.105469 27.105469 L 3.351562 27.121094 L 2.59375 27.132812 L 2.582031 14.859375 C 2.574219 8.113281 2.582031 2.484375 2.601562 2.359375 C 2.679688 1.839844 3.25 1.570312 3.714844 1.832031 Z M 26.746094 1.800781 C 26.921875 1.886719 27.054688 2.023438 27.121094 2.179688 C 27.15625 2.25 27.167969 6.796875 27.167969 14.695312 L 27.167969 27.105469 L 26.402344 27.121094 L 25.632812 27.128906 L 25.632812 2.308594 L 25.742188 2.121094 C 25.945312 1.78125 26.410156 1.628906 26.746094 1.800781 Z M 21.519531 5.148438 C 21.617188 5.214844 21.75 5.375 21.828125 5.492188 C 21.9375 5.671875 21.957031 5.765625 21.957031 6.039062 C 21.957031 6.304688 21.9375 6.398438 21.828125 6.578125 C 21.539062 7.046875 20.988281 7.238281 20.4375 7.058594 C 20.039062 6.925781 19.691406 6.464844 19.6875 6.058594 C 19.675781 5.671875 20.007812 5.15625 20.34375 5.03125 C 20.75 4.875 21.21875 4.921875 21.519531 5.148438 Z M 16.300781 5.046875 C 16.65625 5.226562 16.898438 5.621094 16.898438 6.042969 C 16.898438 7.011719 15.695312 7.492188 14.972656 6.808594 C 14.707031 6.558594 14.617188 6.3125 14.65625 5.910156 C 14.691406 5.480469 14.949219 5.152344 15.351562 5.003906 C 15.570312 4.921875 16.097656 4.945312 16.300781 5.046875 Z M 13.867188 6.707031 C 13.921875 6.835938 13.96875 6.949219 13.96875 6.96875 C 13.96875 7.015625 14.078125 7.136719 14.382812 7.433594 C 14.796875 7.835938 15.167969 7.980469 15.769531 7.980469 C 16.128906 7.980469 16.257812 7.957031 16.53125 7.847656 C 17.074219 7.640625 17.507812 7.175781 17.726562 6.558594 C 17.757812 6.488281 17.828125 6.480469 18.3125 6.480469 C 18.695312 6.480469 18.867188 6.492188 18.867188 6.535156 C 18.867188 6.6875 19.179688 7.191406 19.40625 7.421875 C 19.863281 7.863281 20.425781 8.046875 21.101562 7.972656 C 21.835938 7.890625 22.503906 7.375 22.726562 6.707031 L 22.8125 6.480469 L 24.769531 6.480469 L 24.769531 11.1875 L 4.992188 11.1875 L 4.992188 6.480469 L 13.765625 6.480469 Z M 24.761719 14.4375 L 24.746094 16.804688 L 20.300781 16.820312 L 15.851562 16.828125 L 15.824219 16.703125 C 15.765625 16.484375 15.59375 16.160156 15.433594 15.992188 C 15.210938 15.757812 15.007812 15.570312 14.957031 15.570312 C 14.933594 15.570312 14.875 15.542969 14.835938 15.503906 C 14.738281 15.414062 14.089844 15.242188 13.851562 15.242188 C 13.609375 15.242188 13.039062 15.410156 12.820312 15.546875 C 12.410156 15.796875 12.144531 16.109375 11.957031 16.558594 L 11.847656 16.828125 L 10.808594 16.828125 L 10.722656 16.601562 C 10.464844 15.941406 9.992188 15.519531 9.308594 15.332031 C 9.125 15.285156 8.902344 15.242188 8.796875 15.242188 C 8.578125 15.242188 7.917969 15.414062 7.820312 15.503906 C 7.78125 15.542969 7.722656 15.570312 7.695312 15.570312 C 7.589844 15.570312 7.101562 16.128906 6.980469 16.390625 C 6.90625 16.542969 6.835938 16.695312 6.816406 16.734375 C 6.789062 16.796875 6.632812 16.804688 5.898438 16.804688 L 5.015625 16.804688 L 5 14.4375 L 4.992188 12.070312 L 24.769531 12.070312 Z M 9.289062 16.242188 C 9.566406 16.367188 9.644531 16.441406 9.8125 16.753906 C 10.023438 17.144531 9.96875 17.597656 9.667969 17.941406 C 8.980469 18.71875 7.671875 18.269531 7.660156 17.246094 C 7.652344 16.429688 8.523438 15.890625 9.289062 16.242188 Z M 14.277344 16.195312 C 14.550781 16.304688 14.816406 16.582031 14.929688 16.855469 C 15.042969 17.164062 15.046875 17.269531 14.949219 17.558594 C 14.835938 17.875 14.675781 18.070312 14.386719 18.210938 C 13.523438 18.640625 12.566406 17.929688 12.757812 16.996094 C 12.789062 16.851562 12.835938 16.707031 12.863281 16.671875 C 12.894531 16.644531 12.957031 16.5625 13.007812 16.492188 C 13.242188 16.1875 13.894531 16.035156 14.277344 16.195312 Z M 6.84375 17.792969 C 6.980469 18.351562 7.578125 18.925781 8.230469 19.117188 C 9.289062 19.433594 10.308594 18.898438 10.746094 17.792969 L 10.800781 17.664062 L 11.332031 17.675781 L 11.859375 17.691406 L 11.992188 17.984375 C 12.164062 18.371094 12.394531 18.644531 12.742188 18.871094 C 13.375 19.273438 14.164062 19.300781 14.871094 18.949219 C 15.15625 18.804688 15.542969 18.394531 15.695312 18.074219 C 15.773438 17.90625 15.839844 17.746094 15.839844 17.71875 C 15.839844 17.679688 17.117188 17.667969 20.304688 17.667969 L 24.769531 17.667969 L 24.769531 22.421875 L 21.195312 22.421875 L 21.113281 22.195312 C 20.992188 21.875 20.707031 21.488281 20.429688 21.269531 C 20.234375 21.113281 19.773438 20.929688 19.484375 20.890625 C 18.441406 20.769531 17.539062 21.339844 17.214844 22.339844 C 17.191406 22.417969 17.097656 22.421875 15.980469 22.410156 L 14.773438 22.398438 L 14.6875 22.160156 C 14.480469 21.53125 13.878906 21.046875 13.148438 20.90625 C 12.566406 20.800781 11.96875 20.953125 11.492188 21.332031 C 11.25 21.515625 10.953125 21.941406 10.871094 22.207031 L 10.8125 22.398438 L 4.992188 22.421875 L 4.992188 17.667969 L 6.816406 17.667969 Z M 13.257812 21.835938 C 13.699219 22.023438 13.921875 22.363281 13.921875 22.832031 C 13.921875 23.273438 13.699219 23.617188 13.289062 23.828125 C 13.019531 23.964844 12.496094 23.960938 12.25 23.816406 C 11.855469 23.582031 11.664062 23.265625 11.664062 22.84375 C 11.664062 22.371094 11.90625 22.007812 12.335938 21.820312 C 12.636719 21.695312 12.949219 21.699219 13.257812 21.835938 Z M 19.648438 21.835938 C 20.085938 22.019531 20.324219 22.398438 20.308594 22.890625 C 20.304688 23.285156 20.113281 23.589844 19.742188 23.796875 C 19.5625 23.902344 19.460938 23.925781 19.199219 23.925781 C 18.722656 23.925781 18.367188 23.71875 18.164062 23.316406 C 18.046875 23.078125 18.046875 22.550781 18.164062 22.332031 C 18.457031 21.808594 19.085938 21.59375 19.648438 21.835938 Z M 10.871094 23.476562 C 10.90625 23.582031 11.011719 23.78125 11.105469 23.925781 C 11.707031 24.808594 12.945312 25.0625 13.863281 24.5 C 14.257812 24.257812 14.597656 23.847656 14.707031 23.476562 L 14.765625 23.285156 L 15.976562 23.269531 C 17.097656 23.261719 17.191406 23.265625 17.214844 23.339844 C 17.289062 23.574219 17.550781 24.023438 17.683594 24.160156 C 18.386719 24.863281 19.339844 25.003906 20.234375 24.527344 C 20.496094 24.386719 20.882812 23.964844 21.03125 23.65625 C 21.109375 23.492188 21.171875 23.339844 21.171875 23.3125 C 21.171875 23.273438 21.683594 23.265625 22.960938 23.269531 L 24.746094 23.285156 L 24.761719 25.203125 L 24.769531 27.128906 L 4.992188 27.128906 L 4.992188 25.226562 C 4.992188 24.179688 5.007812 23.304688 5.027344 23.292969 C 5.039062 23.273438 6.351562 23.265625 7.9375 23.269531 L 10.8125 23.285156 Z M 10.871094 23.476562 "/>
<path style=" stroke:none;fill-rule:nonzero;fill:rgb(0%,0%,0%);fill-opacity:1;" d="M 11.945312 30.195312 C 11.824219 30.246094 11.664062 30.460938 11.664062 30.578125 C 11.664062 30.722656 11.808594 30.941406 11.921875 30.972656 C 11.980469 30.984375 12.707031 31 13.542969 31 C 15.265625 31 15.246094 31.003906 15.300781 30.644531 C 15.316406 30.492188 15.304688 30.433594 15.203125 30.316406 L 15.082031 30.183594 L 13.550781 30.175781 C 12.710938 30.167969 11.984375 30.179688 11.945312 30.195312 Z M 11.945312 30.195312 "/>
<path style=" stroke:none;fill-rule:nonzero;fill:rgb(0%,0%,0%);fill-opacity:1;" d="M 16.914062 30.203125 C 16.78125 30.257812 16.65625 30.453125 16.65625 30.613281 C 16.65625 30.6875 16.710938 30.796875 16.777344 30.871094 L 16.902344 31 L 18.457031 31 C 19.3125 31 20.046875 30.984375 20.089844 30.972656 C 20.308594 30.886719 20.355469 30.449219 20.15625 30.273438 C 20.0625 30.1875 19.949219 30.183594 18.535156 30.175781 C 17.699219 30.167969 16.972656 30.183594 16.914062 30.203125 Z M 16.914062 30.203125 "/>
</g>
</svg>
