<?xml version="1.0" encoding="UTF-8"?>
<svg xmlns="http://www.w3.org/2000/svg" xmlns:xlink="http://www.w3.org/1999/xlink" width="30pt" height="32pt" viewBox="0 0 30 32" version="1.1">
<g id="surface1">
<path style=" stroke:none;fill-rule:nonzero;fill:rgb(0%,0%,0%);fill-opacity:1;" d="M 14.171875 1.167969 C 13.4375 1.238281 12.835938 1.316406 12.507812 1.386719 C 12.324219 1.421875 12.03125 1.484375 11.855469 1.515625 C 11.222656 1.648438 10.03125 2.007812 9.65625 2.175781 C 9.574219 2.210938 9.492188 2.246094 9.472656 2.246094 C 9.394531 2.246094 8.082031 2.863281 7.617188 3.121094 C 7.15625 3.378906 6.167969 4.039062 5.683594 4.417969 C 5.070312 4.890625 4.082031 5.824219 3.640625 6.339844 C 3.460938 6.546875 3.238281 6.800781 3.148438 6.90625 C 3.054688 7.011719 2.953125 7.144531 2.921875 7.195312 C 2.890625 7.246094 2.707031 7.511719 2.519531 7.789062 C 2.328125 8.066406 2.167969 8.300781 2.167969 8.3125 C 2.167969 8.328125 2.128906 8.394531 2.078125 8.457031 C 1.917969 8.679688 1.464844 9.546875 1.214844 10.105469 C 0.777344 11.082031 0.390625 12.316406 0.210938 13.308594 C 0.167969 13.539062 0.109375 13.847656 0.0820312 13.988281 C 0.0078125 14.328125 0.0078125 17.652344 0.0820312 18.035156 C 0.242188 18.871094 0.300781 19.152344 0.40625 19.554688 C 0.613281 20.328125 0.675781 20.558594 0.71875 20.65625 C 0.742188 20.707031 0.808594 20.882812 0.867188 21.050781 C 1.089844 21.679688 1.816406 23.1875 2.078125 23.542969 C 2.128906 23.605469 2.167969 23.671875 2.167969 23.6875 C 2.167969 23.699219 2.328125 23.933594 2.519531 24.210938 C 2.707031 24.488281 2.890625 24.75 2.921875 24.800781 C 3.09375 25.09375 3.441406 25.160156 3.667969 24.941406 C 3.859375 24.753906 3.851562 24.585938 3.628906 24.277344 C 3.289062 23.785156 2.90625 23.226562 2.871094 23.15625 C 2.859375 23.121094 2.789062 23.003906 2.726562 22.902344 C 2.09375 21.847656 1.519531 20.417969 1.1875 19.027344 L 1.15625 18.902344 L 1.574219 18.902344 C 2.058594 18.902344 2.464844 18.800781 2.796875 18.597656 C 4.050781 17.84375 4.261719 16.21875 3.238281 15.210938 C 2.691406 14.675781 1.859375 14.429688 1.179688 14.605469 C 1.066406 14.636719 0.960938 14.652344 0.945312 14.636719 C 0.882812 14.578125 1.128906 13.144531 1.324219 12.421875 C 1.632812 11.304688 2.1875 9.988281 2.722656 9.097656 C 2.785156 8.996094 2.859375 8.878906 2.878906 8.835938 C 2.898438 8.796875 3.003906 8.636719 3.105469 8.476562 L 3.292969 8.191406 L 3.445312 8.386719 C 3.726562 8.742188 4.097656 9 4.578125 9.167969 C 5.1875 9.378906 6.015625 9.285156 6.578125 8.945312 C 6.949219 8.714844 7.519531 8.0625 7.519531 7.851562 C 7.519531 7.816406 7.554688 7.722656 7.597656 7.648438 C 7.722656 7.433594 7.71875 6.601562 7.597656 6.292969 C 7.375 5.742188 7.054688 5.328125 6.636719 5.0625 L 6.449219 4.941406 L 6.636719 4.789062 C 6.738281 4.707031 6.847656 4.636719 6.882812 4.632812 C 6.910156 4.632812 6.941406 4.617188 6.941406 4.59375 C 6.941406 4.574219 7.09375 4.46875 7.28125 4.351562 C 7.464844 4.234375 7.699219 4.09375 7.789062 4.03125 C 7.980469 3.914062 8.527344 3.628906 8.917969 3.4375 C 9.0625 3.375 9.222656 3.292969 9.265625 3.269531 C 9.523438 3.140625 10.730469 2.703125 11.207031 2.574219 C 12.027344 2.347656 12.390625 2.273438 13.542969 2.097656 C 13.765625 2.0625 14.464844 2.039062 15.328125 2.039062 C 16.644531 2.039062 16.800781 2.050781 17.496094 2.167969 C 18.132812 2.273438 18.828125 2.421875 19.269531 2.554688 C 19.332031 2.570312 19.371094 2.597656 19.367188 2.613281 C 19.328125 2.683594 19.179688 3.007812 19.117188 3.152344 C 19 3.414062 18.929688 4.050781 18.957031 4.496094 C 19.058594 5.820312 20.042969 6.957031 21.410156 7.328125 C 21.683594 7.402344 21.734375 7.429688 21.753906 7.53125 C 21.8125 7.816406 22.019531 8.261719 22.238281 8.585938 C 22.292969 8.660156 22.5 8.882812 22.703125 9.074219 C 23.117188 9.472656 23.671875 9.777344 24.191406 9.890625 C 24.355469 9.925781 24.511719 9.96875 24.523438 9.984375 C 24.539062 10.003906 24.59375 10.167969 24.640625 10.351562 C 24.785156 10.914062 25.101562 11.453125 25.503906 11.835938 C 25.71875 12.042969 26.285156 12.445312 26.355469 12.445312 C 26.375 12.445312 26.472656 12.488281 26.566406 12.539062 C 26.847656 12.683594 27.6875 12.832031 28.027344 12.796875 C 28.4375 12.753906 28.972656 12.632812 29.097656 12.558594 C 29.238281 12.472656 29.273438 12.535156 29.355469 12.984375 C 29.382812 13.160156 29.429688 13.371094 29.457031 13.449219 C 29.546875 13.753906 29.691406 15.304688 29.691406 16.007812 C 29.691406 16.773438 29.5625 18.097656 29.421875 18.691406 C 29.210938 19.628906 28.910156 20.613281 28.703125 21.074219 C 28.667969 21.152344 28.582031 21.347656 28.515625 21.507812 C 28.367188 21.847656 27.996094 22.59375 27.835938 22.855469 C 27.773438 22.957031 27.6875 23.101562 27.636719 23.179688 C 27.421875 23.554688 26.769531 24.46875 26.535156 24.730469 C 26.511719 24.761719 26.414062 24.875 26.324219 24.988281 C 26.027344 25.347656 24.71875 26.59375 24.246094 26.953125 C 23.277344 27.695312 21.96875 28.449219 20.898438 28.882812 L 20.714844 28.960938 L 20.746094 28.710938 C 20.8125 28.183594 20.578125 27.472656 20.207031 27.101562 C 19.820312 26.714844 19.332031 26.46875 18.832031 26.414062 C 18.550781 26.386719 17.953125 26.453125 17.859375 26.523438 C 17.835938 26.546875 17.757812 26.578125 17.691406 26.597656 C 17.53125 26.644531 17.109375 26.953125 16.949219 27.140625 C 16.332031 27.851562 16.28125 28.972656 16.839844 29.722656 C 17.015625 29.957031 16.960938 29.964844 15.363281 29.960938 C 13.953125 29.960938 13.75 29.945312 12.746094 29.78125 C 11.6875 29.609375 9.953125 29.074219 9.230469 28.707031 C 8.785156 28.476562 8.332031 28.761719 8.46875 29.179688 C 8.503906 29.28125 8.597656 29.351562 8.894531 29.496094 C 9.417969 29.757812 10.121094 30.019531 10.820312 30.21875 C 11.007812 30.269531 11.269531 30.34375 11.398438 30.382812 C 12.347656 30.652344 14.085938 30.871094 15.28125 30.871094 C 16.070312 30.871094 17.644531 30.722656 18.171875 30.597656 C 18.292969 30.570312 18.527344 30.515625 18.703125 30.480469 C 19.402344 30.339844 20.050781 30.152344 20.375 30.007812 C 20.457031 29.972656 20.542969 29.941406 20.566406 29.941406 C 20.648438 29.941406 21.730469 29.492188 22.125 29.292969 C 22.746094 28.972656 23.078125 28.796875 23.195312 28.71875 C 23.261719 28.667969 23.332031 28.632812 23.347656 28.632812 C 23.367188 28.632812 23.40625 28.609375 23.441406 28.585938 C 23.472656 28.558594 23.609375 28.46875 23.738281 28.382812 C 23.875 28.304688 24.003906 28.214844 24.039062 28.1875 C 24.066406 28.164062 24.171875 28.089844 24.269531 28.023438 C 24.367188 27.957031 24.496094 27.863281 24.558594 27.8125 C 24.621094 27.761719 24.730469 27.675781 24.808594 27.625 C 25.589844 27.085938 27.136719 25.492188 27.738281 24.609375 C 27.820312 24.492188 27.902344 24.375 27.921875 24.351562 C 28.222656 23.996094 28.957031 22.703125 29.261719 22.011719 C 29.34375 21.832031 29.425781 21.640625 29.449219 21.589844 C 29.574219 21.320312 29.855469 20.542969 29.933594 20.257812 C 29.996094 20.023438 29.996094 11.886719 29.933594 11.710938 C 29.878906 11.566406 29.667969 11.414062 29.511719 11.414062 C 29.464844 11.414062 29.328125 11.472656 29.210938 11.535156 C 28.625 11.867188 27.984375 11.996094 27.410156 11.886719 C 26.765625 11.769531 26.101562 11.3125 25.757812 10.742188 C 25.589844 10.464844 25.402344 9.839844 25.402344 9.558594 C 25.402344 9.46875 25.351562 9.355469 25.285156 9.28125 C 25.191406 9.167969 25.125 9.144531 24.804688 9.117188 C 24.171875 9.058594 23.628906 8.804688 23.222656 8.378906 C 22.945312 8.089844 22.683594 7.621094 22.636719 7.320312 C 22.566406 6.949219 22.464844 6.714844 22.328125 6.632812 C 22.253906 6.597656 22.054688 6.550781 21.882812 6.53125 C 21.429688 6.488281 20.851562 6.199219 20.519531 5.847656 C 20.175781 5.488281 20.027344 5.234375 19.910156 4.796875 C 19.785156 4.332031 19.785156 4.089844 19.90625 3.636719 C 20.007812 3.261719 20.113281 3.054688 20.375 2.71875 C 20.566406 2.46875 20.585938 2.234375 20.433594 2.078125 C 20.335938 1.980469 20.148438 1.914062 19.136719 1.613281 C 19.015625 1.582031 18.734375 1.515625 18.519531 1.476562 C 18.296875 1.4375 18.097656 1.394531 18.074219 1.378906 C 18.035156 1.355469 17.035156 1.234375 16.339844 1.167969 C 15.816406 1.117188 14.707031 1.121094 14.171875 1.167969 Z M 5.949219 5.679688 C 6.238281 5.816406 6.503906 6.066406 6.660156 6.363281 C 6.753906 6.535156 6.773438 6.644531 6.773438 7 C 6.773438 7.40625 6.761719 7.433594 6.597656 7.699219 C 6.011719 8.632812 4.699219 8.65625 4.0625 7.742188 C 3.847656 7.433594 3.859375 7.402344 4.457031 6.738281 C 4.71875 6.453125 5.632812 5.566406 5.671875 5.566406 C 5.6875 5.566406 5.8125 5.617188 5.949219 5.679688 Z M 2.242188 15.558594 C 2.511719 15.695312 2.746094 15.929688 2.878906 16.183594 C 2.941406 16.304688 2.964844 16.457031 2.964844 16.75 C 2.964844 17.097656 2.949219 17.175781 2.835938 17.367188 C 2.476562 17.949219 1.675781 18.226562 1.117188 17.945312 C 0.996094 17.886719 0.972656 17.839844 0.945312 17.628906 C 0.898438 17.234375 0.828125 15.878906 0.851562 15.753906 C 0.914062 15.441406 1.773438 15.320312 2.242188 15.558594 Z M 19.15625 27.390625 C 19.390625 27.503906 19.621094 27.722656 19.742188 27.957031 C 19.808594 28.09375 19.835938 28.238281 19.835938 28.519531 C 19.835938 28.855469 19.820312 28.921875 19.691406 29.128906 C 19.527344 29.378906 19.496094 29.394531 18.714844 29.589844 C 18.273438 29.703125 18.273438 29.703125 18.066406 29.613281 C 17.808594 29.507812 17.546875 29.234375 17.425781 28.964844 C 17.148438 28.347656 17.5 27.578125 18.160156 27.335938 C 18.402344 27.25 18.917969 27.28125 19.15625 27.390625 Z M 19.15625 27.390625 "/>
<path style=" stroke:none;fill-rule:nonzero;fill:rgb(0%,0%,0%);fill-opacity:1;" d="M 14.726562 5.59375 C 14.546875 5.640625 14.050781 5.820312 14.027344 5.84375 C 14.011719 5.863281 13.910156 5.933594 13.796875 6.007812 C 13.425781 6.253906 13.160156 6.644531 13.007812 7.167969 C 12.898438 7.554688 12.894531 7.785156 12.996094 8.15625 C 13.105469 8.574219 13.273438 8.859375 13.582031 9.160156 C 13.929688 9.492188 14.285156 9.664062 14.765625 9.742188 C 15.453125 9.84375 16.097656 9.640625 16.585938 9.175781 C 17.054688 8.71875 17.253906 8.269531 17.253906 7.671875 C 17.253906 6.796875 16.703125 6.027344 15.851562 5.707031 C 15.597656 5.613281 14.921875 5.542969 14.726562 5.59375 Z M 15.492188 6.507812 C 15.742188 6.570312 16.097656 6.867188 16.242188 7.132812 C 16.382812 7.398438 16.378906 7.953125 16.238281 8.210938 C 15.898438 8.835938 15.148438 9.085938 14.53125 8.78125 C 14.238281 8.636719 14.128906 8.519531 13.953125 8.195312 C 13.832031 7.976562 13.824219 7.910156 13.84375 7.613281 C 13.875 7.167969 14.066406 6.847656 14.429688 6.625 C 14.707031 6.457031 15.101562 6.410156 15.492188 6.507812 Z M 15.492188 6.507812 "/>
<path style=" stroke:none;fill-rule:nonzero;fill:rgb(0%,0%,0%);fill-opacity:1;" d="M 20.253906 11.273438 C 19.898438 11.402344 19.679688 11.535156 19.386719 11.828125 C 18.898438 12.304688 18.703125 12.925781 18.804688 13.636719 C 18.984375 14.941406 20.398438 15.761719 21.691406 15.328125 C 21.875 15.261719 22.050781 15.191406 22.085938 15.164062 C 22.121094 15.132812 22.25 15.035156 22.371094 14.949219 C 22.636719 14.761719 22.929688 14.34375 23.054688 13.988281 C 23.441406 12.890625 22.84375 11.691406 21.703125 11.289062 C 21.304688 11.148438 20.640625 11.144531 20.253906 11.273438 Z M 21.527344 12.144531 C 21.761719 12.253906 22.003906 12.492188 22.144531 12.75 C 22.316406 13.074219 22.320312 13.519531 22.144531 13.851562 C 21.898438 14.328125 21.515625 14.558594 20.976562 14.554688 C 20.617188 14.554688 20.472656 14.511719 20.214844 14.34375 C 19.964844 14.179688 19.773438 13.898438 19.691406 13.570312 C 19.617188 13.308594 19.617188 13.261719 19.691406 13.015625 C 19.886719 12.339844 20.414062 11.992188 21.113281 12.054688 C 21.257812 12.066406 21.445312 12.109375 21.527344 12.144531 Z M 21.527344 12.144531 "/>
<path style=" stroke:none;fill-rule:nonzero;fill:rgb(0%,0%,0%);fill-opacity:1;" d="M 10.21875 11.878906 C 9.890625 11.96875 9.769531 12.019531 9.496094 12.207031 C 8.347656 12.988281 8.285156 14.695312 9.375 15.570312 C 10.617188 16.570312 12.484375 16.007812 12.917969 14.5 C 13.039062 14.074219 13.039062 13.824219 12.921875 13.402344 C 12.707031 12.609375 12.113281 12.042969 11.308594 11.863281 C 10.902344 11.769531 10.617188 11.777344 10.21875 11.878906 Z M 11.367188 12.789062 C 12.390625 13.300781 12.328125 14.699219 11.257812 15.128906 C 10.984375 15.242188 10.5625 15.226562 10.257812 15.097656 C 9.898438 14.941406 9.675781 14.695312 9.546875 14.335938 C 9.421875 13.960938 9.421875 13.914062 9.546875 13.554688 C 9.664062 13.222656 9.890625 12.960938 10.21875 12.796875 C 10.527344 12.636719 11.046875 12.632812 11.367188 12.789062 Z M 11.367188 12.789062 "/>
<path style=" stroke:none;fill-rule:nonzero;fill:rgb(0%,0%,0%);fill-opacity:1;" d="M 23.785156 17.246094 C 23.117188 17.398438 22.558594 17.824219 22.265625 18.410156 C 22.105469 18.726562 22.101562 18.75 22.101562 19.320312 C 22.101562 19.832031 22.113281 19.933594 22.210938 20.125 C 22.269531 20.246094 22.316406 20.371094 22.316406 20.398438 C 22.316406 20.503906 23.023438 21.136719 23.28125 21.257812 C 24.050781 21.617188 25.03125 21.496094 25.707031 20.953125 C 25.796875 20.878906 25.964844 20.6875 26.070312 20.535156 C 26.6875 19.636719 26.558594 18.492188 25.761719 17.78125 C 25.417969 17.476562 25.144531 17.339844 24.726562 17.246094 C 24.3125 17.15625 24.171875 17.15625 23.785156 17.246094 Z M 24.789062 18.171875 C 25.070312 18.296875 25.296875 18.507812 25.445312 18.785156 C 25.585938 19.039062 25.585938 19.582031 25.449219 19.863281 C 25.15625 20.449219 24.503906 20.738281 23.894531 20.558594 C 23.339844 20.386719 22.945312 19.875 22.945312 19.328125 C 22.949219 18.417969 23.945312 17.792969 24.789062 18.171875 Z M 24.789062 18.171875 "/>
<path style=" stroke:none;fill-rule:nonzero;fill:rgb(0%,0%,0%);fill-opacity:1;" d="M 14.882812 17.613281 C 13.726562 18.011719 13.015625 18.984375 13.015625 20.164062 C 13.015625 20.632812 13.089844 20.941406 13.308594 21.363281 C 13.78125 22.269531 14.699219 22.824219 15.742188 22.832031 C 16.800781 22.832031 17.761719 22.257812 18.214844 21.355469 C 18.875 20.054688 18.402344 18.539062 17.109375 17.820312 C 16.683594 17.578125 16.339844 17.496094 15.746094 17.496094 C 15.304688 17.5 15.148438 17.519531 14.882812 17.613281 Z M 16.558594 18.523438 C 17.0625 18.753906 17.398438 19.152344 17.5625 19.707031 C 17.664062 20.046875 17.660156 20.308594 17.554688 20.65625 C 17.382812 21.199219 16.996094 21.613281 16.457031 21.839844 C 16.054688 22.003906 15.46875 22.003906 15.066406 21.839844 C 14.152344 21.464844 13.683594 20.515625 13.972656 19.621094 C 14.117188 19.171875 14.367188 18.867188 14.820312 18.582031 C 15.261719 18.304688 16.03125 18.277344 16.558594 18.523438 Z M 16.558594 18.523438 "/>
<path style=" stroke:none;fill-rule:nonzero;fill:rgb(0%,0%,0%);fill-opacity:1;" d="M 8.628906 21.796875 C 7.9375 21.949219 7.371094 22.363281 7.050781 22.949219 C 6.902344 23.222656 6.777344 23.816406 6.820312 24.085938 C 6.949219 24.992188 7.445312 25.617188 8.28125 25.933594 C 8.503906 26.015625 8.648438 26.035156 9.0625 26.03125 C 9.542969 26.03125 9.582031 26.019531 9.929688 25.855469 C 10.648438 25.515625 11.078125 24.964844 11.191406 24.257812 C 11.359375 23.214844 10.796875 22.273438 9.773438 21.894531 C 9.492188 21.792969 8.886719 21.742188 8.628906 21.796875 Z M 9.417969 22.695312 C 9.542969 22.722656 9.722656 22.824219 9.867188 22.953125 C 10.570312 23.546875 10.484375 24.511719 9.6875 25.011719 C 9.492188 25.136719 9.433594 25.144531 9.039062 25.144531 C 8.714844 25.144531 8.566406 25.121094 8.449219 25.0625 C 7.792969 24.714844 7.539062 24.019531 7.832031 23.398438 C 8.121094 22.792969 8.730469 22.527344 9.417969 22.695312 Z M 9.417969 22.695312 "/>
<path style=" stroke:none;fill-rule:nonzero;fill:rgb(0%,0%,0%);fill-opacity:1;" d="M 4.984375 26.21875 C 4.898438 26.253906 4.808594 26.339844 4.777344 26.421875 C 4.675781 26.660156 4.765625 26.835938 5.214844 27.210938 C 5.808594 27.707031 6.308594 28.066406 6.441406 28.097656 C 6.742188 28.171875 7.027344 27.859375 6.941406 27.550781 C 6.90625 27.433594 6.816406 27.335938 6.59375 27.179688 C 6.28125 26.960938 6.199219 26.890625 5.867188 26.605469 C 5.382812 26.179688 5.234375 26.113281 4.984375 26.21875 Z M 4.984375 26.21875 "/>
</g>
</svg>
