<?xml version="1.0" encoding="UTF-8"?>
<svg xmlns="http://www.w3.org/2000/svg" xmlns:xlink="http://www.w3.org/1999/xlink" width="98pt" height="24pt" viewBox="0 0 98 24" version="1.1">
<g id="surface1">
<path style=" stroke:none;fill-rule:nonzero;fill:rgb(0%,0%,0%);fill-opacity:1;" d="M 26.214844 12.238281 C 26.214844 15.617188 26.238281 17.390625 26.296875 17.390625 C 26.355469 17.390625 26.378906 15.617188 26.378906 12.238281 C 26.378906 8.859375 26.355469 7.089844 26.296875 7.089844 C 26.238281 7.089844 26.214844 8.859375 26.214844 12.238281 Z M 26.214844 12.238281 "/>
<path style=" stroke:none;fill-rule:nonzero;fill:rgb(0%,0%,0%);fill-opacity:1;" d="M 14.78125 7.625 L 14.78125 7.910156 L 16.089844 7.910156 L 16.089844 16.976562 L 14.78125 16.976562 L 14.78125 17.554688 L 19.109375 17.554688 C 21.496094 17.554688 23.4375 17.53125 23.445312 17.488281 C 23.480469 17.207031 23.488281 14.6875 23.453125 14.605469 C 23.4375 14.554688 23.316406 14.503906 23.191406 14.503906 C 22.980469 14.503906 22.957031 14.53125 22.90625 14.933594 C 22.777344 15.855469 22.441406 16.433594 21.863281 16.753906 C 21.542969 16.929688 21.40625 16.9375 19.707031 16.960938 L 17.886719 16.984375 L 17.886719 12.59375 L 19.019531 12.625 C 20.523438 12.660156 20.660156 12.75 20.785156 13.78125 C 20.832031 14.167969 20.839844 14.175781 21.117188 14.175781 L 21.398438 14.175781 L 21.378906 12.460938 L 21.355469 10.753906 L 21.09375 10.730469 C 20.847656 10.707031 20.832031 10.722656 20.785156 11.019531 C 20.628906 11.933594 20.449219 12.03125 18.945312 12.03125 L 17.886719 12.03125 L 17.886719 7.902344 L 19.828125 7.929688 C 21.757812 7.953125 21.78125 7.953125 22.074219 8.160156 C 22.464844 8.429688 22.628906 8.792969 22.734375 9.617188 L 22.816406 10.300781 L 23.355469 10.300781 L 23.355469 7.335938 L 14.78125 7.335938 Z M 14.78125 7.625 "/>
<path style=" stroke:none;fill-rule:nonzero;fill:rgb(0%,0%,0%);fill-opacity:1;" d="M 30.054688 10.136719 C 30.054688 10.179688 30.167969 10.21875 30.296875 10.21875 L 30.542969 10.21875 L 30.542969 13.679688 L 30.296875 13.679688 C 30.167969 13.679688 30.054688 13.714844 30.054688 13.765625 C 30.054688 13.8125 30.625 13.847656 31.605469 13.847656 C 33.027344 13.847656 33.15625 13.839844 33.164062 13.699219 C 33.222656 13.089844 33.199219 12.773438 33.097656 12.773438 C 33.042969 12.773438 32.992188 12.867188 32.992188 12.972656 C 32.992188 13.089844 32.902344 13.285156 32.796875 13.410156 C 32.609375 13.625 32.542969 13.640625 31.898438 13.671875 L 31.195312 13.699219 L 31.195312 12.03125 L 31.574219 12.03125 C 32.046875 12.03125 32.257812 12.148438 32.257812 12.402344 C 32.257812 12.519531 32.300781 12.609375 32.339844 12.609375 C 32.390625 12.609375 32.421875 12.347656 32.421875 11.992188 C 32.421875 11.636719 32.390625 11.375 32.339844 11.375 C 32.300781 11.375 32.257812 11.449219 32.257812 11.539062 C 32.257812 11.746094 31.972656 11.867188 31.515625 11.867188 L 31.195312 11.867188 L 31.195312 10.21875 L 31.761719 10.21875 C 32.503906 10.21875 32.796875 10.328125 32.902344 10.648438 C 32.953125 10.789062 32.992188 10.96875 32.992188 11.050781 C 32.992188 11.144531 33.035156 11.207031 33.074219 11.207031 C 33.125 11.207031 33.15625 10.960938 33.15625 10.632812 L 33.15625 10.054688 L 31.605469 10.054688 C 30.625 10.054688 30.054688 10.089844 30.054688 10.136719 Z M 30.054688 10.136719 "/>
<path style=" stroke:none;fill-rule:nonzero;fill:rgb(0%,0%,0%);fill-opacity:1;" d="M 38.546875 10.136719 C 38.546875 10.179688 38.660156 10.21875 38.792969 10.21875 L 39.035156 10.21875 L 39.035156 13.679688 L 38.792969 13.679688 C 38.660156 13.679688 38.546875 13.714844 38.546875 13.765625 C 38.546875 13.8125 38.914062 13.847656 39.484375 13.847656 C 40.058594 13.847656 40.425781 13.8125 40.425781 13.765625 C 40.425781 13.714844 40.261719 13.679688 40.066406 13.679688 C 39.640625 13.679688 39.617188 13.632812 39.632812 12.707031 L 39.648438 12.074219 L 39.960938 12.050781 C 40.359375 12.015625 40.671875 12.207031 40.671875 12.484375 C 40.671875 12.601562 40.710938 12.691406 40.75 12.691406 C 40.800781 12.691406 40.832031 12.421875 40.832031 12.03125 C 40.832031 11.644531 40.800781 11.375 40.75 11.375 C 40.710938 11.375 40.671875 11.441406 40.671875 11.523438 C 40.671875 11.769531 40.492188 11.867188 40.03125 11.867188 L 39.601562 11.867188 L 39.625 11.058594 L 39.648438 10.261719 L 40.3125 10.261719 C 41.085938 10.269531 41.21875 10.34375 41.289062 10.8125 C 41.378906 11.347656 41.488281 11.25 41.488281 10.640625 L 41.488281 10.054688 L 40.015625 10.054688 C 39.09375 10.054688 38.546875 10.089844 38.546875 10.136719 Z M 38.546875 10.136719 "/>
<path style=" stroke:none;fill-rule:nonzero;fill:rgb(0%,0%,0%);fill-opacity:1;" d="M 46.714844 10.136719 C 46.714844 10.179688 46.804688 10.21875 46.917969 10.21875 L 47.121094 10.21875 L 47.121094 13.679688 L 46.917969 13.679688 C 46.804688 13.679688 46.714844 13.714844 46.714844 13.765625 C 46.714844 13.8125 47.023438 13.847656 47.480469 13.847656 C 47.914062 13.847656 48.28125 13.8125 48.304688 13.765625 C 48.339844 13.714844 48.242188 13.679688 48.070312 13.679688 L 47.78125 13.679688 L 47.734375 12.117188 L 48.078125 12.117188 C 48.558594 12.117188 48.796875 12.355469 49.023438 13.0625 C 49.21875 13.699219 49.390625 13.847656 49.921875 13.847656 C 50.273438 13.847656 50.316406 13.746094 50.019531 13.617188 C 49.867188 13.542969 49.785156 13.402344 49.679688 13.015625 C 49.570312 12.625 49.472656 12.453125 49.238281 12.253906 L 48.941406 12 L 49.195312 11.875 C 49.335938 11.800781 49.515625 11.605469 49.605469 11.429688 C 49.875 10.871094 49.636719 10.359375 49.007812 10.144531 C 48.664062 10.03125 46.714844 10.023438 46.714844 10.136719 Z M 48.910156 10.515625 C 49.066406 10.707031 49.089844 10.8125 49.058594 11.152344 C 49.007812 11.6875 48.828125 11.867188 48.242188 11.925781 L 47.773438 11.976562 L 47.773438 10.195312 L 48.25 10.246094 C 48.625 10.285156 48.753906 10.335938 48.910156 10.515625 Z M 48.910156 10.515625 "/>
<path style=" stroke:none;fill-rule:nonzero;fill:rgb(0%,0%,0%);fill-opacity:1;" d="M 55.042969 10.136719 C 55.042969 10.179688 55.15625 10.21875 55.289062 10.21875 L 55.535156 10.21875 L 55.535156 13.679688 L 55.289062 13.679688 C 55.15625 13.679688 55.042969 13.714844 55.042969 13.765625 C 55.042969 13.8125 55.613281 13.847656 56.59375 13.847656 L 58.148438 13.847656 L 58.148438 13.308594 C 58.148438 13.003906 58.113281 12.773438 58.066406 12.773438 C 58.023438 12.773438 57.984375 12.875 57.984375 12.988281 C 57.984375 13.113281 57.886719 13.300781 57.746094 13.441406 C 57.519531 13.664062 57.46875 13.679688 56.847656 13.679688 C 56.21875 13.679688 56.1875 13.671875 56.136719 13.484375 C 56.113281 13.367188 56.105469 13.003906 56.121094 12.675781 L 56.144531 12.074219 L 56.570312 12.050781 C 57.019531 12.023438 57.25 12.15625 57.25 12.453125 C 57.25 12.535156 57.289062 12.609375 57.328125 12.609375 C 57.378906 12.609375 57.410156 12.347656 57.410156 11.992188 C 57.410156 11.390625 57.3125 11.175781 57.214844 11.570312 C 57.167969 11.785156 56.960938 11.867188 56.496094 11.867188 C 56.269531 11.867188 56.1875 11.828125 56.144531 11.703125 C 56.082031 11.496094 56.113281 10.425781 56.1875 10.300781 C 56.226562 10.234375 56.457031 10.210938 56.90625 10.226562 C 57.664062 10.269531 57.851562 10.382812 57.933594 10.878906 C 58.015625 11.414062 58.148438 11.257812 58.148438 10.632812 L 58.148438 10.054688 L 56.59375 10.054688 C 55.613281 10.054688 55.042969 10.089844 55.042969 10.136719 Z M 55.042969 10.136719 "/>
<path style=" stroke:none;fill-rule:nonzero;fill:rgb(0%,0%,0%);fill-opacity:1;" d="M 63.210938 10.136719 C 63.210938 10.179688 63.300781 10.21875 63.414062 10.21875 L 63.617188 10.21875 L 63.617188 13.679688 L 63.414062 13.679688 C 63.300781 13.679688 63.210938 13.714844 63.210938 13.765625 C 63.210938 13.8125 63.453125 13.847656 63.78125 13.847656 C 64.109375 13.847656 64.351562 13.8125 64.351562 13.765625 C 64.351562 13.714844 64.246094 13.679688 64.109375 13.679688 L 63.863281 13.679688 L 63.863281 12.15625 C 63.863281 11.316406 63.878906 10.632812 63.894531 10.632812 C 63.914062 10.632812 64.394531 11.355469 64.972656 12.238281 C 65.914062 13.664062 66.050781 13.839844 66.257812 13.847656 L 66.476562 13.847656 L 66.476562 10.21875 L 66.679688 10.21875 C 66.796875 10.21875 66.886719 10.179688 66.886719 10.136719 C 66.886719 10.089844 66.65625 10.054688 66.355469 10.054688 C 66.050781 10.054688 65.824219 10.089844 65.824219 10.136719 C 65.824219 10.179688 65.914062 10.21875 66.027344 10.21875 L 66.230469 10.21875 L 66.230469 11.578125 C 66.230469 12.328125 66.214844 12.941406 66.191406 12.941406 C 66.175781 12.941406 65.734375 12.289062 65.21875 11.496094 L 64.28125 10.054688 L 63.742188 10.054688 C 63.4375 10.054688 63.210938 10.089844 63.210938 10.136719 Z M 63.210938 10.136719 "/>
<path style=" stroke:none;fill-rule:nonzero;fill:rgb(0%,0%,0%);fill-opacity:1;" d="M 72.863281 10.160156 C 72.519531 10.269531 72.003906 10.855469 71.882812 11.273438 C 71.761719 11.679688 71.761719 12.222656 71.875 12.632812 C 71.980469 13.015625 72.421875 13.53125 72.796875 13.714844 C 73.117188 13.863281 73.949219 13.886719 74.292969 13.753906 C 74.578125 13.648438 74.976562 13.269531 74.921875 13.171875 C 74.886719 13.128906 74.773438 13.1875 74.652344 13.300781 C 74.226562 13.707031 73.574219 13.804688 73.109375 13.515625 C 72.707031 13.269531 72.496094 12.734375 72.503906 11.941406 C 72.503906 11.160156 72.609375 10.8125 72.929688 10.507812 C 73.425781 10.023438 74.449219 10.195312 74.667969 10.796875 C 74.824219 11.21875 74.96875 11.101562 74.96875 10.550781 C 74.96875 10.160156 74.945312 10.054688 74.847656 10.054688 C 74.78125 10.054688 74.726562 10.113281 74.726562 10.179688 C 74.726562 10.246094 74.707031 10.300781 74.691406 10.300781 C 74.675781 10.300781 74.527344 10.246094 74.375 10.179688 C 74.039062 10.039062 73.261719 10.03125 72.863281 10.160156 Z M 72.863281 10.160156 "/>
<path style=" stroke:none;fill-rule:nonzero;fill:rgb(0%,0%,0%);fill-opacity:1;" d="M 79.789062 10.128906 C 79.789062 10.171875 79.871094 10.21875 79.976562 10.234375 C 80.15625 10.261719 80.15625 10.261719 80.15625 11.949219 C 80.15625 13.640625 80.15625 13.640625 79.976562 13.664062 C 79.871094 13.679688 79.789062 13.730469 79.789062 13.773438 C 79.789062 13.8125 80.097656 13.847656 80.484375 13.847656 C 80.867188 13.847656 81.175781 13.8125 81.175781 13.773438 C 81.175781 13.730469 81.09375 13.679688 80.996094 13.664062 C 80.816406 13.640625 80.808594 13.605469 80.808594 12.855469 L 80.808594 12.074219 L 81.691406 12.050781 L 82.566406 12.023438 L 82.566406 13.679688 L 82.351562 13.679688 C 82.238281 13.679688 82.164062 13.714844 82.199219 13.765625 C 82.222656 13.804688 82.539062 13.847656 82.890625 13.847656 C 83.242188 13.847656 83.5625 13.804688 83.585938 13.765625 C 83.617188 13.714844 83.546875 13.679688 83.429688 13.679688 L 83.21875 13.679688 L 83.21875 10.21875 L 83.429688 10.21875 C 83.546875 10.21875 83.617188 10.1875 83.585938 10.136719 C 83.5625 10.089844 83.242188 10.054688 82.882812 10.054688 C 82.507812 10.054688 82.238281 10.089844 82.238281 10.136719 C 82.238281 10.179688 82.3125 10.21875 82.394531 10.21875 C 82.597656 10.21875 82.613281 10.300781 82.582031 11.144531 L 82.558594 11.867188 L 80.769531 11.867188 L 80.769531 10.21875 L 80.972656 10.21875 C 81.085938 10.21875 81.175781 10.179688 81.175781 10.136719 C 81.175781 10.089844 80.890625 10.054688 80.484375 10.054688 C 80.097656 10.054688 79.789062 10.089844 79.789062 10.128906 Z M 79.789062 10.128906 "/>
</g>
</svg>
