<?xml version="1.0" encoding="UTF-8"?>
<svg xmlns="http://www.w3.org/2000/svg" xmlns:xlink="http://www.w3.org/1999/xlink" width="30pt" height="32pt" viewBox="0 0 30 32" version="1.1">
<g id="surface1">
<path style=" stroke:none;fill-rule:nonzero;fill:rgb(0%,0%,0%);fill-opacity:1;" d="M 13.371094 0.933594 C 13.105469 0.957031 12.824219 0.988281 12.742188 1 C 12.667969 1.019531 12.363281 1.070312 12.070312 1.117188 C 11.785156 1.167969 11.449219 1.234375 11.328125 1.265625 C 10.5625 1.453125 9.773438 1.6875 9.519531 1.800781 C 9.4375 1.835938 9.355469 1.863281 9.335938 1.863281 C 9.316406 1.863281 9.234375 1.890625 9.152344 1.929688 C 9.066406 1.96875 8.835938 2.0625 8.640625 2.144531 C 7.234375 2.726562 5.601562 3.757812 4.453125 4.789062 C 3.765625 5.414062 2.789062 6.460938 2.410156 6.980469 C 2.1875 7.289062 1.808594 7.835938 1.753906 7.933594 C 1.300781 8.675781 0.625 9.941406 0.625 10.042969 C 0.625 10.0625 0.59375 10.140625 0.554688 10.21875 C 0.457031 10.433594 0.265625 10.921875 0.136719 11.300781 L 0.0234375 11.625 L 0.0234375 20.203125 L 0.15625 20.574219 C 0.230469 20.78125 0.3125 20.992188 0.335938 21.039062 C 0.359375 21.089844 0.4375 21.28125 0.507812 21.460938 C 0.703125 21.96875 1.308594 23.128906 1.6875 23.746094 C 1.871094 24.050781 2.039062 24.3125 2.058594 24.328125 C 2.074219 24.339844 2.160156 24.453125 2.25 24.585938 C 3.5625 26.4375 5.683594 28.21875 7.863281 29.285156 C 10.367188 30.511719 12.769531 31.003906 15.6875 30.890625 C 16.511719 30.855469 17.828125 30.683594 18.480469 30.519531 C 19.144531 30.355469 19.929688 30.113281 20.441406 29.925781 C 20.574219 29.867188 20.789062 29.789062 20.917969 29.738281 C 21.328125 29.585938 22.050781 29.230469 22.777344 28.828125 C 22.878906 28.773438 23.027344 28.679688 23.355469 28.480469 C 25.179688 27.339844 27.007812 25.503906 28.128906 23.675781 C 28.644531 22.835938 29.089844 21.949219 29.089844 21.769531 C 29.089844 21.617188 28.902344 21.414062 28.726562 21.371094 C 28.570312 21.335938 28.324219 21.464844 28.242188 21.628906 C 28.207031 21.6875 28.078125 21.949219 27.949219 22.207031 C 27.742188 22.617188 27.050781 23.78125 26.925781 23.925781 C 26.902344 23.953125 26.738281 24.164062 26.566406 24.394531 C 25.957031 25.203125 25.066406 26.109375 24.171875 26.832031 C 23.757812 27.164062 22.488281 28.027344 22.273438 28.121094 C 22.234375 28.132812 22.050781 28.234375 21.867188 28.335938 C 21.683594 28.441406 21.441406 28.5625 21.335938 28.609375 C 21.230469 28.65625 21 28.757812 20.824219 28.84375 C 20.644531 28.921875 20.488281 28.988281 20.46875 28.988281 C 20.453125 28.988281 20.371094 29.019531 20.292969 29.058594 C 20.09375 29.140625 19.816406 29.238281 19.273438 29.40625 C 17.695312 29.890625 16.375 30.074219 14.691406 30.046875 C 13.753906 30.03125 12.519531 29.929688 12.289062 29.84375 C 12.257812 29.828125 12.015625 29.78125 11.761719 29.734375 C 11.21875 29.621094 10.640625 29.476562 10.5625 29.429688 C 10.53125 29.410156 10.402344 29.371094 10.28125 29.335938 C 10 29.257812 9.667969 29.140625 9.46875 29.058594 C 9.390625 29.019531 9.3125 28.988281 9.296875 28.988281 C 9.269531 28.988281 8.394531 28.601562 8.257812 28.53125 C 8.195312 28.496094 7.351562 28.027344 7.113281 27.894531 C 7.066406 27.863281 6.960938 27.796875 6.878906 27.738281 C 6.796875 27.679688 6.707031 27.636719 6.679688 27.636719 C 6.648438 27.636719 6.625 27.617188 6.625 27.589844 C 6.625 27.566406 6.5625 27.515625 6.488281 27.476562 C 6.414062 27.441406 6.265625 27.335938 6.160156 27.253906 C 6.050781 27.167969 5.902344 27.058594 5.832031 27.007812 C 5.753906 26.957031 5.667969 26.890625 5.640625 26.855469 C 5.609375 26.828125 5.453125 26.699219 5.292969 26.574219 C 3.835938 25.386719 2.273438 23.316406 1.484375 21.507812 C 1.089844 20.605469 0.808594 19.734375 0.648438 18.96875 C 0.609375 18.773438 0.554688 18.535156 0.527344 18.429688 C 0.429688 18.050781 0.289062 16.566406 0.289062 15.890625 C 0.289062 15.214844 0.429688 13.734375 0.527344 13.351562 C 0.554688 13.25 0.609375 13.015625 0.648438 12.839844 C 0.789062 12.171875 1.179688 10.890625 1.296875 10.742188 C 1.316406 10.714844 1.347656 10.644531 1.367188 10.578125 C 1.449219 10.308594 2.164062 8.890625 2.285156 8.757812 C 2.324219 8.71875 2.351562 8.667969 2.351562 8.648438 C 2.351562 8.621094 2.558594 8.300781 2.65625 8.179688 C 2.675781 8.148438 2.742188 8.054688 2.808594 7.960938 C 3.253906 7.292969 3.851562 6.597656 4.582031 5.890625 C 5.324219 5.167969 5.976562 4.640625 6.707031 4.171875 C 6.804688 4.105469 6.914062 4.039062 6.9375 4.015625 C 6.984375 3.984375 7.277344 3.804688 7.449219 3.703125 C 9.667969 2.441406 12.03125 1.800781 14.667969 1.738281 C 16.90625 1.6875 19.097656 2.15625 21.265625 3.160156 C 22.128906 3.5625 23.433594 4.351562 23.957031 4.800781 C 24.007812 4.835938 24.074219 4.890625 24.105469 4.917969 C 24.683594 5.335938 25.851562 6.492188 26.351562 7.128906 C 26.421875 7.21875 26.550781 7.382812 26.640625 7.496094 C 26.796875 7.695312 27.121094 8.15625 27.242188 8.351562 C 27.558594 8.871094 27.921875 9.515625 28.082031 9.839844 C 28.339844 10.382812 28.539062 10.527344 28.816406 10.386719 C 29.074219 10.25 29.152344 10.003906 29.019531 9.753906 C 28.976562 9.683594 28.882812 9.488281 28.800781 9.320312 C 28.574219 8.839844 27.8125 7.554688 27.703125 7.457031 C 27.6875 7.441406 27.605469 7.339844 27.53125 7.222656 C 27.066406 6.554688 25.90625 5.289062 25.203125 4.679688 C 24.542969 4.121094 23.335938 3.261719 22.757812 2.953125 C 22.667969 2.90625 22.453125 2.789062 22.277344 2.691406 C 22.105469 2.597656 21.917969 2.496094 21.867188 2.476562 C 21.8125 2.453125 21.605469 2.359375 21.410156 2.269531 C 20.746094 1.960938 19.960938 1.675781 19.105469 1.429688 C 18.570312 1.273438 17.988281 1.15625 16.847656 0.972656 C 16.472656 0.914062 13.9375 0.882812 13.371094 0.933594 Z M 13.371094 0.933594 "/>
<path style=" stroke:none;fill-rule:nonzero;fill:rgb(0%,0%,0%);fill-opacity:1;" d="M 13.796875 3.914062 C 12.917969 3.984375 11.234375 4.34375 10.726562 4.566406 C 10.675781 4.589844 10.441406 4.683594 10.199219 4.773438 C 9.121094 5.175781 7.71875 5.996094 6.863281 6.730469 C 6.648438 6.917969 5.636719 7.898438 5.441406 8.109375 C 4.714844 8.914062 3.824219 10.332031 3.433594 11.339844 C 3.335938 11.570312 3.242188 11.808594 3.214844 11.859375 C 3.15625 11.984375 3.003906 12.480469 2.886719 12.933594 C 2.410156 14.691406 2.386719 16.710938 2.816406 18.570312 C 3.039062 19.539062 3.410156 20.515625 3.882812 21.410156 C 4.488281 22.542969 5.144531 23.40625 6.140625 24.378906 C 7.152344 25.355469 8.039062 25.996094 9.238281 26.585938 C 10.539062 27.230469 11.652344 27.574219 13.296875 27.832031 C 13.777344 27.90625 15.945312 27.90625 16.417969 27.832031 C 17.839844 27.601562 18.523438 27.429688 19.503906 27.042969 C 21.066406 26.433594 22.421875 25.550781 23.640625 24.359375 C 24.871094 23.152344 25.601562 22.101562 26.363281 20.410156 C 26.675781 19.726562 27.011719 18.492188 27.179688 17.40625 C 27.25 16.917969 27.25 14.8125 27.179688 14.355469 C 26.992188 13.21875 26.6875 12.089844 26.367188 11.371094 C 25.59375 9.617188 24.625 8.28125 23.136719 6.929688 C 22.847656 6.664062 21.855469 5.921875 21.636719 5.8125 C 21.578125 5.777344 21.433594 5.6875 21.3125 5.617188 C 21.027344 5.433594 20.085938 4.96875 19.769531 4.839844 C 19.628906 4.789062 19.40625 4.703125 19.273438 4.652344 C 17.667969 4.035156 15.65625 3.765625 13.796875 3.914062 Z M 16.070312 4.800781 C 16.566406 4.855469 17.082031 4.925781 17.207031 4.957031 C 17.34375 4.996094 17.527344 5.035156 17.617188 5.054688 C 17.808594 5.085938 18.378906 5.242188 18.625 5.332031 C 19.464844 5.640625 19.984375 5.867188 20.566406 6.191406 C 21.113281 6.492188 21.644531 6.851562 22.199219 7.296875 C 23.46875 8.304688 24.558594 9.652344 25.242188 11.054688 C 25.449219 11.480469 25.53125 11.671875 25.757812 12.257812 C 26.167969 13.324219 26.433594 15.03125 26.382812 16.195312 C 26.347656 16.855469 26.230469 17.78125 26.09375 18.398438 C 25.738281 20.015625 24.734375 21.9375 23.605469 23.175781 C 23.136719 23.691406 22.441406 24.34375 22.105469 24.585938 C 22 24.664062 21.902344 24.730469 21.890625 24.746094 C 21.847656 24.792969 21.171875 25.257812 21.148438 25.257812 C 21.136719 25.257812 21.03125 25.324219 20.910156 25.40625 C 20.550781 25.636719 19.636719 26.074219 19.042969 26.304688 C 18.730469 26.421875 18.457031 26.515625 18.433594 26.515625 C 18.40625 26.515625 18.285156 26.546875 18.160156 26.59375 C 17.449219 26.828125 15.765625 27.078125 14.882812 27.078125 C 14.40625 27.078125 12.898438 26.921875 12.648438 26.847656 C 12.570312 26.820312 12.375 26.777344 12.214844 26.75 C 12.058594 26.722656 11.84375 26.671875 11.738281 26.636719 C 11.628906 26.601562 11.425781 26.535156 11.28125 26.492188 C 9.003906 25.808594 6.773438 24.171875 5.371094 22.160156 C 4.132812 20.382812 3.542969 18.632812 3.378906 16.21875 C 3.347656 15.6875 3.523438 13.761719 3.628906 13.601562 C 3.640625 13.585938 3.671875 13.457031 3.695312 13.320312 C 3.816406 12.695312 4.296875 11.445312 4.703125 10.695312 C 5.660156 8.949219 7.144531 7.410156 8.867188 6.382812 C 9.34375 6.101562 10.378906 5.59375 10.480469 5.59375 C 10.519531 5.59375 10.566406 5.574219 10.585938 5.550781 C 10.609375 5.503906 11.84375 5.109375 12.121094 5.058594 C 12.203125 5.035156 12.394531 4.996094 12.554688 4.957031 C 12.917969 4.867188 14.308594 4.71875 14.800781 4.710938 C 15.007812 4.707031 15.578125 4.75 16.070312 4.800781 Z M 16.070312 4.800781 "/>
<path style=" stroke:none;fill-rule:nonzero;fill:rgb(0%,0%,0%);fill-opacity:1;" d="M 14.605469 6.125 L 14.472656 6.234375 L 14.457031 6.929688 C 14.449219 7.3125 14.460938 7.675781 14.488281 7.742188 C 14.515625 7.804688 14.609375 7.894531 14.707031 7.941406 C 14.871094 8.015625 14.890625 8.015625 15.054688 7.941406 C 15.152344 7.898438 15.246094 7.808594 15.269531 7.75 C 15.292969 7.6875 15.3125 7.328125 15.3125 6.960938 L 15.3125 6.28125 L 15.175781 6.148438 C 14.996094 5.980469 14.796875 5.96875 14.605469 6.125 Z M 14.605469 6.125 "/>
<path style=" stroke:none;fill-rule:nonzero;fill:rgb(0%,0%,0%);fill-opacity:1;" d="M 7.847656 8.804688 C 7.71875 8.859375 7.59375 9 7.585938 9.109375 C 7.5625 9.332031 7.609375 9.417969 8.003906 9.808594 C 8.703125 10.511719 8.820312 10.554688 9.101562 10.28125 C 9.382812 10.003906 9.328125 9.871094 8.664062 9.246094 C 8.171875 8.78125 8.058594 8.726562 7.847656 8.804688 Z M 7.847656 8.804688 "/>
<path style=" stroke:none;fill-rule:nonzero;fill:rgb(0%,0%,0%);fill-opacity:1;" d="M 21.660156 8.804688 C 21.488281 8.84375 20.554688 9.773438 20.515625 9.9375 C 20.464844 10.191406 20.785156 10.484375 21.046875 10.421875 C 21.125 10.402344 21.394531 10.1875 21.683594 9.90625 C 22.160156 9.460938 22.191406 9.414062 22.195312 9.238281 C 22.199219 8.933594 21.957031 8.738281 21.660156 8.804688 Z M 21.660156 8.804688 "/>
<path style=" stroke:none;fill-rule:nonzero;fill:rgb(0%,0%,0%);fill-opacity:1;" d="M 14.59375 10.011719 L 14.449219 10.148438 L 14.449219 15.765625 L 13.566406 16.632812 C 13.015625 17.171875 12.667969 17.546875 12.648438 17.632812 C 12.621094 17.726562 12.644531 17.792969 12.738281 17.917969 C 12.878906 18.089844 13.03125 18.15625 13.199219 18.105469 C 13.257812 18.085938 13.75 17.644531 14.296875 17.113281 L 15.289062 16.152344 L 15.304688 13.160156 L 15.3125 10.167969 L 15.207031 10.042969 C 15.140625 9.972656 15.023438 9.914062 14.921875 9.894531 C 14.765625 9.871094 14.722656 9.890625 14.59375 10.011719 Z M 14.59375 10.011719 "/>
<path style=" stroke:none;fill-rule:nonzero;fill:rgb(0%,0%,0%);fill-opacity:1;" d="M 4.964844 15.519531 C 4.683594 15.625 4.628906 15.960938 4.84375 16.175781 L 4.984375 16.3125 L 5.683594 16.3125 C 6.0625 16.3125 6.429688 16.292969 6.492188 16.269531 C 6.558594 16.246094 6.648438 16.152344 6.691406 16.058594 C 6.769531 15.902344 6.769531 15.882812 6.691406 15.722656 C 6.648438 15.628906 6.558594 15.539062 6.492188 15.515625 C 6.351562 15.460938 5.097656 15.460938 4.964844 15.519531 Z M 4.964844 15.519531 "/>
<path style=" stroke:none;fill-rule:nonzero;fill:rgb(0%,0%,0%);fill-opacity:1;" d="M 23.28125 15.503906 C 23.050781 15.59375 22.96875 15.960938 23.136719 16.171875 C 23.222656 16.285156 23.242188 16.285156 23.992188 16.304688 L 24.757812 16.316406 L 24.90625 16.195312 C 25.109375 16.027344 25.117188 15.804688 24.917969 15.605469 L 24.777344 15.472656 L 24.0625 15.476562 C 23.675781 15.476562 23.320312 15.492188 23.28125 15.503906 Z M 23.28125 15.503906 "/>
<path style=" stroke:none;fill-rule:nonzero;fill:rgb(0%,0%,0%);fill-opacity:1;" d="M 8.675781 21.382812 C 8.625 21.398438 8.359375 21.632812 8.089844 21.898438 C 7.609375 22.359375 7.585938 22.390625 7.585938 22.578125 C 7.585938 22.882812 7.859375 23.078125 8.136719 22.976562 C 8.289062 22.921875 8.925781 22.339844 9.125 22.070312 C 9.296875 21.84375 9.304688 21.707031 9.136719 21.535156 C 8.992188 21.386719 8.8125 21.324219 8.675781 21.382812 Z M 8.675781 21.382812 "/>
<path style=" stroke:none;fill-rule:nonzero;fill:rgb(0%,0%,0%);fill-opacity:1;" d="M 20.757812 21.433594 C 20.5625 21.542969 20.476562 21.75 20.539062 21.917969 C 20.601562 22.070312 21.472656 22.921875 21.636719 22.980469 C 21.945312 23.097656 22.304688 22.757812 22.183594 22.449219 C 22.117188 22.289062 21.257812 21.453125 21.097656 21.390625 C 20.933594 21.332031 20.929688 21.332031 20.757812 21.433594 Z M 20.757812 21.433594 "/>
<path style=" stroke:none;fill-rule:nonzero;fill:rgb(0%,0%,0%);fill-opacity:1;" d="M 14.589844 23.949219 L 14.449219 24.085938 L 14.449219 25.5 L 14.589844 25.636719 C 14.75 25.789062 14.921875 25.808594 15.125 25.691406 C 15.304688 25.589844 15.324219 25.476562 15.304688 24.65625 C 15.289062 24.015625 15.28125 23.992188 15.167969 23.910156 C 14.984375 23.773438 14.753906 23.785156 14.589844 23.949219 Z M 14.589844 23.949219 "/>
<path style=" stroke:none;fill-rule:nonzero;fill:rgb(0%,0%,0%);fill-opacity:1;" d="M 29.109375 11.859375 C 29.003906 11.96875 28.988281 12.011719 29.007812 12.203125 C 29.035156 12.441406 29.214844 13.308594 29.253906 13.367188 C 29.261719 13.382812 29.3125 13.691406 29.355469 14.050781 C 29.449219 14.894531 29.492188 15.054688 29.628906 15.152344 L 29.738281 15.234375 L 29.753906 13.546875 C 29.765625 11.65625 29.78125 11.742188 29.414062 11.742188 C 29.28125 11.742188 29.195312 11.777344 29.109375 11.859375 Z M 29.109375 11.859375 "/>
<path style=" stroke:none;fill-rule:nonzero;fill:rgb(0%,0%,0%);fill-opacity:1;" d="M 29.574219 16.679688 C 29.484375 16.765625 29.46875 16.84375 29.304688 18.035156 C 29.265625 18.304688 29.191406 18.726562 29.132812 18.96875 C 28.96875 19.671875 28.964844 19.761719 29.109375 19.914062 C 29.253906 20.0625 29.554688 20.097656 29.703125 19.984375 C 29.777344 19.921875 29.789062 16.589844 29.714844 16.589844 C 29.691406 16.589844 29.628906 16.628906 29.574219 16.679688 Z M 29.574219 16.679688 "/>
</g>
</svg>
